<svg width="38" height="36" viewBox="0 0 38 36" fill="none" xmlns="http://www.w3.org/2000/svg">
<g clip-path="url(#clip0_10701_1173)">
<path d="M34.9099 9C36.5079 9 37.86 10.26 37.86 11.82V24.12C37.86 25.74 36.5079 27 34.9099 27H2.95013C1.35214 27 0.061461 25.74 0 24.24V11.88C0 10.26 1.35214 9 2.95013 9H34.9099ZM17.8852 21.24H11.1244V24.9H17.8852V21.24ZM26.797 21.24H20.0363V24.9H26.797V21.24ZM8.97331 21.24H2.2126V24.18C2.2126 24.6 2.5199 24.9 2.95013 24.9H8.97331V21.24ZM35.6474 21.24H28.8867V24.9H34.9099C35.3401 24.9 35.7089 24.6 35.6474 24.18V21.24ZM34.9099 11.1H2.95013C2.5199 11.1 2.2126 11.4 2.2126 11.82V19.2H35.7089V11.88C35.7089 11.46 35.3401 11.1 34.9099 11.1ZM31.2837 13.98C31.8983 13.98 32.39 14.46 32.39 15.06C32.39 15.66 31.8983 16.14 31.2837 16.14H27.3502C26.7355 16.14 26.2439 15.66 26.2439 15.06C26.2439 14.46 26.7355 13.98 27.3502 13.98H31.2837Z" fill="black"/>
</g>
<defs>
<clipPath id="clip0_10701_1173">
<rect width="37.86" height="36" fill="white"/>
</clipPath>
</defs>
</svg>
