<svg width="93" height="70" viewBox="0 0 93 70" fill="none" xmlns="http://www.w3.org/2000/svg">
<mask id="mask0_10918_3572" style="mask-type:luminance" maskUnits="userSpaceOnUse" x="0" y="0" width="93" height="70">
<path d="M0.380859 0.078125H92.3809V69.8229H0.380859V0.078125Z" fill="white"/>
</mask>
<g mask="url(#mask0_10918_3572)">
<path d="M21.1357 47.375C22.1409 47.8437 23.2086 48.3489 24.3753 48.8281C22.4326 47.4635 20.5524 45.9844 18.6409 44.7552C15.1722 42.526 11.792 40.151 8.38571 37.8333C7.36488 40.1146 6.02113 42.125 4.26071 43.8489C6.08883 44.4635 7.76592 45.4166 9.76592 45.7135C12.4274 46.1094 15.0003 46.5833 17.5993 47.3021C18.6461 47.5937 19.7086 47.8594 20.7711 48.1146C19.4118 47.4583 18.1878 46.875 17.0628 46.4219C16.5107 46.1666 15.9638 46.0104 15.4586 45.8125C14.9482 45.6354 14.4534 45.526 13.9951 45.3854C13.0576 45.1094 12.2399 44.875 11.5315 44.6666C10.818 44.4687 10.2347 44.2656 9.75029 44.0781C9.26592 43.8958 8.87529 43.7396 8.57842 43.6146C7.97425 43.3698 7.72946 43.2344 7.75029 43.1771C7.77113 43.125 8.05238 43.1562 8.68259 43.3073C8.99509 43.3802 9.39613 43.4896 9.89092 43.625C10.1409 43.6979 10.417 43.776 10.7138 43.8594C11.0107 43.9323 11.344 44.0104 11.693 44.0937C12.4013 44.2656 13.219 44.4687 14.1565 44.7083C14.6357 44.8281 15.1565 44.9323 15.6826 45.1094C16.2086 45.2916 16.7815 45.4531 17.3597 45.6979C18.5211 46.1458 19.7711 46.7291 21.1357 47.375ZM24.667 53.9427C25.1826 53.9896 26.9951 54.3646 28.0055 54.1823C26.5055 53.8489 25.0732 53.3489 23.5888 52.8437C21.0628 51.9791 18.5784 51.6354 15.9118 51.3958C13.4065 51.1771 10.594 51.1146 8.18779 50.3229C6.36488 49.7239 4.65134 48.8489 2.82321 48.3177C2.74508 48.4531 2.65654 48.5885 2.568 48.7239C6.55238 51.0677 11.1878 51.8437 15.7034 52.5833C18.6774 53.0677 21.6565 53.6823 24.667 53.9427ZM29.469 49.9844C28.8493 49.3541 28.219 48.7344 27.7138 48.1875C24.943 45.1979 22.1618 42.2239 19.3805 39.2552C16.042 35.6875 12.7399 32.0781 9.35967 28.5416C7.63571 30.0052 5.98988 31.5469 4.48988 33.2344C9.26592 36.3021 13.8336 39.6719 18.6097 42.7344C22.0732 44.9583 25.6097 48.1875 29.469 49.9844ZM29.5576 52.7708C29.7555 52.6354 29.9743 52.5104 30.2086 52.401C28.5159 52.0573 26.9118 51.4375 25.2138 51.0104C22.5159 50.3385 19.8336 49.6458 17.1513 48.9271C14.542 48.2239 11.969 47.7969 9.318 47.3333C7.33883 46.9948 5.67738 46.0937 3.87009 45.4896C3.80238 45.9531 3.68779 46.3854 3.54196 46.7969C5.26592 47.3698 6.85967 48.2708 8.63571 48.6927C11.3909 49.3594 14.1982 49.5312 17.0107 49.8125C19.1045 50.0208 21.167 50.2396 23.167 50.9166C25.2763 51.6406 27.3388 52.4739 29.5576 52.7708ZM34.2972 57.0208C34.2972 57.0208 34.193 56.1354 34.1201 55.8854C34.0784 55.7187 34.0211 55.5625 33.9586 55.4062C33.6826 55.25 33.5784 54.9635 33.6045 54.6771C33.1982 53.9791 32.6149 53.4062 31.818 53.2031C31.6565 53.3541 31.5003 53.5156 31.3493 53.6719C31.2868 53.7969 31.1878 53.901 31.0472 53.9896C30.969 54.0833 30.8909 54.1719 30.8128 54.2604C30.7711 54.3073 30.7295 54.3437 30.6826 54.3698C30.4326 54.6458 30.1826 54.9062 29.9378 55.1771C30.1045 56.2239 31.9222 57.3385 33.0524 57.2396C33.4065 57.2135 34.0003 57.2344 34.2972 57.0208ZM57.219 23.8385C54.7659 19.1614 51.094 14.7344 47.0003 11.401C43.6618 8.69269 39.9118 6.18227 37.7451 2.39581C32.2295 6.05206 27.1878 10.1823 22.1826 14.5156C17.8545 18.2552 13.0784 21.7239 9.18779 25.9375C13.318 30.1823 17.3076 34.5677 21.3493 38.8958C24.0732 41.8021 26.792 44.7083 29.4951 47.6354C30.5472 48.7708 31.8388 49.9062 32.8024 51.1823C37.1513 47.3541 40.1097 41.9114 44.0003 37.6302C48.292 32.9114 53.2763 28.8698 57.219 23.8385ZM66.6045 64.0937C66.5576 63.6041 66.5159 63.1146 66.4743 62.6302C64.542 62.5156 62.7503 61.9479 60.8805 61.3958C58.4065 60.6614 55.8493 60.3177 53.3128 59.8594C52.2659 59.6666 51.2243 59.4583 50.1774 59.2396C51.0368 59.5 51.8909 59.7656 52.7451 60.026C57.3024 61.4479 61.8597 63.3489 66.6045 64.0937ZM69.0576 33.0364C71.9795 27.9166 75.3076 22.8958 78.8128 18.125C72.0315 19.9896 65.5784 22.8802 58.8024 24.8021C58.7138 24.8229 58.6357 24.8385 58.5576 24.8385C54.7399 29.6666 49.9899 33.5469 45.8545 38.0937C42.0732 42.25 39.0993 47.4479 35.0524 51.3906C39.4534 50.6771 43.5732 49 47.8284 47.7031C51.818 46.4948 55.917 45.8646 59.9847 45.0104C60.7034 44.7916 61.1201 44.6406 61.7503 43.7916C62.469 42.8437 63.4065 42.0989 64.2086 41.2396C66.3909 38.9062 67.4899 35.7812 69.0576 33.0364ZM83.6045 20.3541C83.5003 20.151 83.417 19.9375 83.3493 19.7239C82.1045 19.7916 80.8753 19.9948 79.6409 20.151C79.5576 20.1666 79.4743 20.1562 79.4065 20.151C75.7868 25.0989 72.3128 30.3333 69.5315 35.7187C68.167 38.3646 66.9586 40.9219 64.8076 43.0156C63.8128 43.9844 63.1045 45.2448 62.1565 46.1979C61.5836 46.7708 60.3961 46.625 59.6461 46.8906C59.4482 46.9635 59.2815 46.9583 59.1305 46.9062C54.8336 47.7916 50.5472 48.5469 46.3597 49.9531C45.4951 50.2448 44.6357 50.5312 43.7659 50.8177C44.2763 50.6927 44.7659 50.5729 45.2503 50.4583C47.0732 50.0104 48.7711 49.6823 50.3128 49.5312C53.3649 49.3385 55.6305 48.7656 57.4222 48.3958C59.2034 48.0156 60.4534 47.8177 61.2607 47.75C62.0628 47.6979 62.4118 47.7031 62.417 47.7656C62.417 47.9166 61.0368 48.0573 57.5576 48.9791C56.6774 49.1979 55.6618 49.4687 54.469 49.7239C53.8805 49.8437 53.2399 49.9583 52.5524 50.0573C51.8753 50.1406 51.1565 50.2239 50.3909 50.3073C48.8961 50.4739 47.2555 50.8073 45.443 51.2604C45.0993 51.3437 44.7503 51.4375 44.3857 51.526C46.1565 51.3489 47.9222 51.1614 49.6774 50.9479C54.3076 50.3854 59.0159 50.0573 63.5472 48.9062C65.6722 46.7708 66.9534 43.9062 68.7347 41.4948C70.4743 39.1406 72.2659 36.8333 74.0732 34.5364C77.6097 30.0521 80.2659 24.9791 83.6045 20.3541ZM84.5159 26.1302C83.6045 26.1198 82.7034 26.1302 81.792 26.2344C81.7503 26.2396 81.719 26.2396 81.6774 26.2396C79.6305 29.4583 77.6357 32.7187 75.2659 35.7291C73.1253 38.4479 70.818 41.151 68.9482 44.0729C67.6565 46.0937 66.5576 48.2083 64.8805 49.9427C64.8076 50.1719 64.6357 50.3698 64.3284 50.4531C59.5576 51.7031 54.5628 52.0521 49.6774 52.6302C49.6149 52.6354 49.5472 52.6458 49.4847 52.651C49.6149 52.6562 49.7451 52.6562 49.8753 52.6666C54.6513 52.8333 59.3493 54.0104 64.1097 54.0312C66.1774 51.8281 67.2451 49.0573 68.9795 46.6094C70.7607 44.0989 72.5576 41.5937 74.4326 39.1562C77.7763 34.8073 81.0784 30.401 84.5159 26.1302ZM86.3597 27.9531C86.0263 27.8594 85.693 27.7916 85.3597 27.7448C81.469 32.5781 77.6461 37.5469 73.9951 42.5469C72.2972 44.8698 70.5211 47.151 69.0993 49.6614C67.9274 51.7396 66.7659 53.7708 65.0732 55.4739C64.8597 55.6875 64.6149 55.75 64.3909 55.7083C64.3597 55.7135 64.3284 55.7187 64.292 55.7187C59.1045 55.7291 54.0263 54.3906 48.818 54.3229C45.5628 54.276 42.2972 54.3646 39.042 54.4323C40.5576 54.5364 42.0732 54.5989 43.5993 54.7864C46.0211 55.0729 48.4274 55.4739 50.8284 55.8541C55.1409 56.5416 59.719 56.3698 63.943 57.5521C71.6826 47.8906 79.0576 37.9427 86.3597 27.9531ZM86.6201 32.4114C86.1982 32.3333 85.7763 32.276 85.3493 32.2239C85.3336 32.2239 85.3232 32.2239 85.3076 32.2239C78.7034 41.2187 72.0159 50.1614 65.0368 58.8698C64.8909 59.2344 64.542 59.4896 64.068 59.3437C59.4222 57.8854 54.193 58.1041 49.3857 57.3177C49.1045 57.2708 48.8232 57.2344 48.542 57.1979C49.9482 57.5 51.344 57.7916 52.7555 58.0521C55.3076 58.5104 57.9847 58.7812 60.4743 59.5104C62.4222 60.0885 64.318 60.7864 66.3388 60.9323C70.9534 57.0937 73.8493 51.2396 77.3076 46.4114C80.5368 41.9114 83.917 37.2656 86.6201 32.4114ZM87.6357 36.2187C87.6357 36.2135 87.6357 36.2031 87.6305 36.1979C87.5263 35.901 87.443 35.5312 87.3857 35.1302C87.2972 35.0208 87.2451 34.8906 87.2347 34.7448C84.3649 39.6354 80.9065 44.3177 77.594 48.875C74.4638 53.1823 72.0159 58.1614 67.9951 61.7239C68.0003 61.7708 68.0003 61.8229 67.9951 61.8646C68.068 61.9896 68.1097 62.1302 68.1305 62.276C68.1826 62.8333 68.2086 63.3906 68.2711 63.9479C72.1618 59.2552 76.2815 54.6979 79.3649 49.4166C81.9847 44.9166 84.3284 40.2604 87.6357 36.2187ZM90.4482 35.9323C90.0472 35.8333 89.6409 35.7448 89.2399 35.6562C89.2399 35.6719 89.2399 35.6875 89.2503 35.6979C89.3024 35.8698 89.3024 36.026 89.2711 36.1614C89.3805 36.4271 89.3701 36.7552 89.1253 37.0364C85.1357 41.7812 82.7555 47.5156 79.3493 52.6458C76.1722 57.4375 72.2555 61.6927 68.6253 66.1458C68.1878 66.6927 67.542 66.3854 67.318 65.8802C62.1461 65.2083 57.2555 63.1875 52.2972 61.6562C46.8545 59.9687 41.3909 58.3489 35.9847 56.5364C35.9638 56.5312 35.9482 56.5156 35.9222 56.5052C35.9378 56.7031 35.9378 56.8802 35.9118 57.0573C46.6878 60.7604 56.8232 66.6406 68.3128 67.8906C68.3336 67.8906 68.344 67.8958 68.3701 67.901C70.7972 65.8906 72.1513 63.1198 73.9222 60.5677C75.7607 57.9219 77.9534 55.5416 79.8805 52.9583C82.068 50.0312 84.0888 46.9948 86.1253 43.9791C87.8545 41.4323 89.4847 38.8489 90.4482 35.9323ZM91.7555 34.5C92.1982 34.6146 92.4638 35.1094 92.3388 35.5416C91.3961 38.9427 89.5732 41.9375 87.5784 44.8281C85.5159 47.8281 83.542 50.901 81.3336 53.8073C79.0628 56.8073 76.4795 59.6094 74.4795 62.8073C72.9847 65.1875 71.5368 67.5833 69.2868 69.3281C69.1045 69.4687 68.9065 69.5208 68.719 69.5104C68.6045 69.5625 68.4743 69.5937 68.3128 69.5729C56.469 68.2916 46.0888 62.2552 34.9638 58.5C34.4586 58.7864 33.7972 58.9219 33.0524 58.9271C31.3336 58.9427 29.2399 57.9635 28.5211 56.3021C28.4534 56.1302 28.3961 55.9635 28.3545 55.8021C23.3857 55.75 18.4378 54.7864 13.5524 53.9219C9.15654 53.1562 4.75029 52.1823 0.963835 49.7135C0.60446 49.4739 0.38571 48.9479 0.661752 48.5625C0.922168 48.1823 1.17738 47.8177 1.40654 47.4479C1.3805 47.1041 1.55238 46.7396 1.86488 46.5677C2.03675 46.1614 2.16696 45.7291 2.23467 45.2396C2.23467 45.1719 2.2555 45.1146 2.27113 45.0521C1.71904 44.875 1.34404 44.1771 1.91696 43.7083C4.18259 41.8333 5.80238 39.5625 6.97425 36.8802C5.60967 35.9583 4.22946 35.0521 2.83363 34.1719C2.48988 33.9583 2.39613 33.6146 2.45863 33.3073C2.45863 33.1198 2.51592 32.9271 2.66696 32.7552C4.33363 30.7656 6.21904 29.0052 8.193 27.3281C8.04717 27.1875 7.90654 27.0312 7.76071 26.8802C7.23988 26.7135 6.87009 26 7.34404 25.4531C11.792 20.3906 17.5315 16.2864 22.6409 11.901C27.3701 7.84373 32.1565 4.02602 37.3753 0.609356C37.5263 0.510397 37.6722 0.473939 37.8024 0.473939C38.1565 0.31769 38.5836 0.369772 38.8076 0.822898C41.0888 5.40623 45.7347 7.91144 49.3961 11.2396C53.0315 14.5364 56.3753 18.6198 58.6722 22.9791C58.7243 22.9948 58.7763 23.0156 58.8232 23.0416C66.2399 20.8802 73.2815 17.6146 80.818 15.8802C81.8336 15.6458 82.2815 17.1146 81.3961 17.4583C81.1878 17.7448 80.969 18.0312 80.7607 18.3177C81.844 18.1666 82.9378 18.0156 84.0368 18.0052C84.5732 17.9896 84.844 18.3958 84.8545 18.8125C84.8909 19.0364 84.9482 19.2604 85.0368 19.4791C85.0472 19.4948 85.1357 19.6719 85.1461 19.6927C85.2086 19.8021 85.2659 19.9062 85.3284 20.0104C85.5472 20.375 85.4534 20.7344 85.219 20.9739C84.3857 22.1146 83.594 23.2864 82.8232 24.4739C83.943 24.4114 85.0732 24.4531 86.1982 24.4583C86.9847 24.4583 87.193 25.3542 86.8336 25.8385C86.8024 25.9219 86.7607 26.0052 86.693 26.0833C86.6409 26.151 86.5888 26.2239 86.5315 26.2916C87.0576 26.4219 87.5732 26.5885 88.1149 26.8177C88.5055 26.9896 88.667 27.6354 88.4222 27.9687C87.7555 28.875 87.0993 29.776 86.4326 30.6823C86.9951 30.7604 87.5576 30.8698 88.1045 31.0416C88.2399 31.0833 88.344 31.151 88.4274 31.2291C88.6513 31.3646 88.8128 31.5989 88.8128 31.9479C88.8128 32.7291 88.8232 33.3281 88.8701 33.8698C89.8388 34.0521 90.792 34.2656 91.7555 34.5Z" fill="white"/>
</g>
</svg>
