<svg width="31" height="30" viewBox="0 0 31 30" fill="none" xmlns="http://www.w3.org/2000/svg">
<g clip-path="url(#clip0_10738_1994)">
<path fill-rule="evenodd" clip-rule="evenodd" d="M30.2753 5.9799C30.2753 2.87663 27.75 0.357178 24.641 0.357178H5.90952C2.80053 0.357178 0.275269 2.87663 0.275269 5.9799V24.0199C0.275269 27.1224 2.80053 29.6426 5.90954 29.6426H24.641C27.75 29.6426 30.2753 27.1224 30.2753 24.0199L30.2753 5.9799Z" fill="#0C3B7C"/>
<path fill-rule="evenodd" clip-rule="evenodd" d="M0.276291 18.5508H15.2595V29.6427H0.276302L0.276291 18.5508Z" fill="#0C3B7C"/>
<path d="M13.9096 19.7417L11.4934 19.7393V16.8555C11.4934 16.2393 11.7328 15.9186 12.2611 15.8453H13.9096C15.0853 15.8453 15.8458 16.5852 15.8458 17.7827C15.8458 19.0127 15.1045 19.7405 13.9096 19.7417ZM11.4934 11.9634V11.2043C11.4934 10.5401 11.7749 10.2242 12.3922 10.1833H13.6293C14.6894 10.1833 15.3248 10.8163 15.3248 11.8769C15.3248 12.684 14.8891 13.6269 13.6678 13.6269H11.4934V11.9634ZM16.995 14.8412L16.5582 14.5962L16.9396 14.2707C17.3836 13.8899 18.1273 13.0336 18.1273 11.5562C18.1273 9.29331 16.3692 7.83397 13.6485 7.83397H10.5439V7.83276H10.1901C9.3839 7.86279 8.73772 8.5174 8.72929 9.32695V22.1668H13.7099C16.7339 22.1668 18.6857 20.5236 18.6857 17.9785C18.6857 16.608 18.0551 15.437 16.995 14.8412Z" fill="white"/>
<path d="M19.9828 20.393C19.9828 19.4122 20.7753 18.6187 21.7518 18.6187C22.7308 18.6187 23.527 19.4122 23.527 20.393C23.527 21.3726 22.7308 22.1674 21.7518 22.1674C20.7753 22.1674 19.9828 21.3726 19.9828 20.393Z" fill="#00BAFC"/>
</g>
<defs>
<clipPath id="clip0_10738_1994">
<rect width="30" height="29.2857" fill="white" transform="translate(0.275269 0.357178)"/>
</clipPath>
</defs>
</svg>
