<svg width="23" height="25" viewBox="0 0 23 25" fill="none" xmlns="http://www.w3.org/2000/svg">
<path d="M21.6826 23.4375H20.7061V1.17188C20.7061 0.524658 20.1814 0 19.5342 0H3.12793C2.48071 0 1.95605 0.524658 1.95605 1.17188V23.4375H0.979492C0.655908 23.4375 0.393555 23.6999 0.393555 24.0234V25H22.2686V24.0234C22.2686 23.6999 22.0062 23.4375 21.6826 23.4375ZM6.64355 3.71094C6.64355 3.38735 6.90591 3.125 7.22949 3.125H9.18262C9.5062 3.125 9.76855 3.38735 9.76855 3.71094V5.66406C9.76855 5.98765 9.5062 6.25 9.18262 6.25H7.22949C6.90591 6.25 6.64355 5.98765 6.64355 5.66406V3.71094ZM6.64355 8.39844C6.64355 8.07485 6.90591 7.8125 7.22949 7.8125H9.18262C9.5062 7.8125 9.76855 8.07485 9.76855 8.39844V10.3516C9.76855 10.6751 9.5062 10.9375 9.18262 10.9375H7.22949C6.90591 10.9375 6.64355 10.6751 6.64355 10.3516V8.39844ZM9.18262 15.625H7.22949C6.90591 15.625 6.64355 15.3626 6.64355 15.0391V13.0859C6.64355 12.7624 6.90591 12.5 7.22949 12.5H9.18262C9.5062 12.5 9.76855 12.7624 9.76855 13.0859V15.0391C9.76855 15.3626 9.5062 15.625 9.18262 15.625ZM12.8936 23.4375H9.76855V19.3359C9.76855 19.0124 10.0309 18.75 10.3545 18.75H12.3076C12.6312 18.75 12.8936 19.0124 12.8936 19.3359V23.4375ZM16.0186 15.0391C16.0186 15.3626 15.7562 15.625 15.4326 15.625H13.4795C13.1559 15.625 12.8936 15.3626 12.8936 15.0391V13.0859C12.8936 12.7624 13.1559 12.5 13.4795 12.5H15.4326C15.7562 12.5 16.0186 12.7624 16.0186 13.0859V15.0391ZM16.0186 10.3516C16.0186 10.6751 15.7562 10.9375 15.4326 10.9375H13.4795C13.1559 10.9375 12.8936 10.6751 12.8936 10.3516V8.39844C12.8936 8.07485 13.1559 7.8125 13.4795 7.8125H15.4326C15.7562 7.8125 16.0186 8.07485 16.0186 8.39844V10.3516ZM16.0186 5.66406C16.0186 5.98765 15.7562 6.25 15.4326 6.25H13.4795C13.1559 6.25 12.8936 5.98765 12.8936 5.66406V3.71094C12.8936 3.38735 13.1559 3.125 13.4795 3.125H15.4326C15.7562 3.125 16.0186 3.38735 16.0186 3.71094V5.66406Z" fill="black"/>
</svg>
