<svg width="163" height="91" viewBox="0 0 163 91" fill="none" xmlns="http://www.w3.org/2000/svg">
<mask id="mask0_10976_2073" style="mask-type:luminance" maskUnits="userSpaceOnUse" x="31" y="0" width="101" height="91">
<path d="M31 0H131.302V90.9563H31V0Z" fill="white"/>
</mask>
<g mask="url(#mask0_10976_2073)">
<path d="M102.399 82.6879H109.885V86.5449C109.885 86.7587 109.748 86.8792 109.513 86.8792C109.513 86.8792 105.015 86.8792 102.755 86.8792C102.521 86.8792 102.396 86.7346 102.396 86.5811V82.6879H102.399ZM52.4307 82.6879H59.9136V86.5449C59.9136 86.7437 59.7796 86.8792 59.5451 86.8792H52.787C52.5616 86.8792 52.4276 86.7587 52.4276 86.5449V82.6879H52.4307ZM123.404 18.0658L125.987 18.5204C126.358 18.6198 126.462 18.7192 126.581 18.9088C126.718 19.0865 126.876 19.4538 126.876 20.1403V28.255C126.876 29.4202 126.639 29.5317 126.045 29.8297C125.493 30.1218 124.437 30.2543 123.438 30.2784L123.404 18.0658ZM38.8963 18.0658L38.8628 30.2784C37.8638 30.2543 36.8161 30.1218 36.2558 29.8297C35.671 29.5317 35.4243 29.4202 35.4243 28.255V20.1403C35.4243 19.4508 35.5827 19.0835 35.7167 18.9088C35.8385 18.7192 35.9512 18.6198 36.3228 18.5204L38.8963 18.0658ZM59.07 4.38679H103.24C105.094 4.38679 106.389 5.06125 107.522 6.28673C108.645 7.5092 109.523 9.3429 109.961 11.4084C110.196 12.5195 110.4 13.5884 110.522 14.5309C112.209 27.5655 113.594 52.632 113.594 58.368V73.9921C113.594 75.5789 113.424 76.434 113.119 77.0121C112.851 77.524 112.3 78.0268 111.298 78.6591H51.0145C50.0003 78.0268 49.4613 77.524 49.1933 77.0121C48.8796 76.434 48.709 75.5789 48.709 73.9921V58.368C48.709 52.632 50.1008 27.5986 51.7759 14.5549C51.9099 13.4981 52.1474 12.378 52.3393 11.4115C52.7626 9.3429 53.6519 7.51221 54.7758 6.28974C55.9117 5.06126 57.2152 4.38679 59.07 4.38679ZM59.07 0.352051C56.0914 0.352051 53.5393 1.64979 51.7667 3.56178C50.0003 5.48279 48.9192 7.95182 48.3588 10.5503C48.237 11.1043 48.1365 11.7637 48.0238 12.387L35.4456 14.585C35.3786 14.5971 35.3238 14.6091 35.266 14.6182C34.1086 14.9193 33.0305 15.6299 32.3331 16.6416C31.6448 17.6412 31.3555 18.8637 31.3555 20.1403V28.255C31.3555 30.6337 32.726 32.5547 34.3432 33.3857C35.9603 34.2288 37.6598 34.3402 39.0059 34.3402C39.9043 34.3402 40.8393 34.1535 41.6494 33.5303C42.4687 32.907 42.9407 31.808 42.9407 30.8535L42.9742 17.3522L47.4482 16.5753C45.8858 30.3055 44.6371 52.3761 44.6371 58.365V73.9891C44.6371 75.8228 44.7955 77.4216 45.5691 78.888C46.1416 79.9659 47.2532 80.6976 48.3466 81.4774V86.5449C48.3466 88.9327 50.3688 90.9109 52.784 90.9109H59.542C61.9572 90.9109 63.9946 88.9477 63.9946 86.5449V82.6879H98.3149V86.5118C98.2723 88.9477 100.337 90.9139 102.755 90.9139H109.51C111.929 90.9139 113.963 88.9357 113.963 86.5449V81.4594C115.041 80.6916 116.162 79.9569 116.725 78.891C117.511 77.4246 117.669 75.8228 117.669 73.9921V58.368C117.669 52.3761 116.409 30.3085 114.846 16.5753L119.32 17.3552L119.354 30.8565C119.354 31.811 119.838 32.91 120.648 33.5333C121.458 34.1566 122.39 34.3432 123.288 34.3432C124.638 34.3432 126.337 34.2318 127.951 33.3887C129.571 32.5547 130.954 30.6337 130.954 28.258V20.1434C130.954 18.8637 130.662 17.6412 129.964 16.6446C129.267 15.6299 128.189 14.9193 127.031 14.6212C126.974 14.6121 126.919 14.5971 126.861 14.5881L114.274 12.387C114.161 11.7637 114.06 11.1073 113.936 10.5533C113.375 7.95182 112.297 5.48581 110.528 3.56479C108.767 1.6528 106.212 0.352051 103.237 0.352051H59.07Z" fill="#CC9600"/>
</g>
<path d="M104.076 60.1679C103.007 60.6994 102.301 61.0012 101.275 61.663C99.4553 62.8255 99.1569 65.0544 99.2456 67.3931C101.089 66.889 104.1 66.0626 105.048 65.4213C105.353 65.2156 105.692 64.5195 105.787 63.4702C105.887 62.4071 105.657 61.1452 105.527 60.6103C105.285 59.6947 104.449 59.9759 104.076 60.1679ZM103.163 56.6496C104.307 56.2415 105.45 56.2415 106.422 56.7353C107.391 57.2429 108.077 58.1756 108.449 59.194C108.928 60.5348 109.105 62.1671 108.939 63.8748C108.774 65.5962 108.21 67.5303 106.641 68.5967C104.558 70.0027 101.361 70.5959 99.7035 71.052C99.0417 71.244 98.3001 71.2577 97.6324 70.8737C96.9587 70.4965 96.4269 69.7969 96.2703 69.0802C95.4076 65.1299 96.6633 61.1932 99.2781 58.8031C100.611 57.5995 102.008 57.0508 103.163 56.6496Z" fill="#CC9600"/>
<path d="M73.3571 66.2971H89.6357C90.294 66.2971 90.62 66.5878 90.689 66.8475L91.5197 70.088C91.7391 71.0138 91.5793 71.4824 91.4037 71.68C91.2344 71.8888 90.8395 72.1288 89.7737 72.1288H73.2317C72.1565 72.1288 71.7646 71.8888 71.5891 71.68C71.4042 71.4824 71.2443 71.0251 71.4763 70.0654L72.307 66.8475C72.4449 66.3168 73.0844 66.2971 73.3571 66.2971ZM73.3571 63.2739C72.4606 63.2739 71.5295 63.4518 70.7208 63.9316C69.8995 64.4199 69.2851 65.2414 69.0437 66.1616L68.1879 69.4303C67.8055 70.9207 67.981 72.4139 68.9528 73.5373C69.9214 74.6579 71.5201 75.1378 73.2317 75.1378H89.7737C91.4884 75.1378 93.0745 74.6579 94.0557 73.5373C95.0275 72.411 95.1905 70.9207 94.8112 69.4303L93.9554 66.1616C93.714 65.2414 93.0965 64.4228 92.2752 63.9316C91.4664 63.4518 90.5511 63.2739 89.6389 63.2739H73.3571Z" fill="#CC9600"/>
<path d="M58.4721 17.0662H103.512C104.487 25.2079 105.493 42.7889 105.586 50.1568H56.4112C56.5012 42.7889 57.4882 25.2079 58.4721 17.0662ZM56.9171 13.8415C56.079 13.8294 55.3683 14.4316 55.2534 15.2416C54.1422 23.5519 53 44.6557 53 51.7767C53.0093 52.6619 53.7449 53.3725 54.6606 53.3875H107.339C108.252 53.3755 108.984 52.6619 109 51.7767C109 44.6407 107.845 23.5398 106.719 15.2416C106.616 14.4316 105.909 13.8294 105.067 13.8415H56.9171Z" fill="#CC9600"/>
<path d="M58.6783 60.1679C59.9125 60.6994 60.7273 61.0012 61.9103 61.663C64.0173 62.8255 64.3548 65.0544 64.2423 67.3931C62.1149 66.889 58.6544 66.0626 57.56 65.4213C57.1952 65.2156 56.8168 64.5195 56.7042 63.4702C56.5917 62.4071 56.8543 61.1452 57.0043 60.6103C57.2838 59.6947 58.2521 59.9759 58.6783 60.1679ZM59.7352 56.6496C58.4021 56.2415 57.0963 56.2415 55.9781 56.7353C54.8564 57.2429 54.0518 58.1756 53.6358 59.194C53.0835 60.5348 52.8824 62.1671 53.0665 63.8748C53.2574 65.5962 53.912 67.5303 55.7223 68.5967C58.1259 70.0027 61.8115 70.5959 63.7275 71.052C64.4912 71.244 65.3504 71.2577 66.1141 70.8737C66.8948 70.4965 67.5153 69.7969 67.6892 69.0802C68.6847 65.1299 67.2255 61.1932 64.2151 58.8031C62.6809 57.5995 61.0716 57.0508 59.7352 56.6496Z" fill="#CC9600"/>
</svg>
