<svg width="33" height="36" viewBox="0 0 33 36" fill="none" xmlns="http://www.w3.org/2000/svg">
<path id="Vector" d="M0.5 32.625C0.5 34.4883 2.04139 36 3.94125 36H29.1771C31.0769 36 32.6183 34.4883 32.6183 32.625V13.5H0.5V32.625ZM23.4417 18.8438C23.4417 18.3797 23.8288 18 24.302 18H27.1697C27.6429 18 28.03 18.3797 28.03 18.8438V21.6562C28.03 22.1203 27.6429 22.5 27.1697 22.5H24.302C23.8288 22.5 23.4417 22.1203 23.4417 21.6562V18.8438ZM23.4417 27.8438C23.4417 27.3797 23.8288 27 24.302 27H27.1697C27.6429 27 28.03 27.3797 28.03 27.8438V30.6562C28.03 31.1203 27.6429 31.5 27.1697 31.5H24.302C23.8288 31.5 23.4417 31.1203 23.4417 30.6562V27.8438ZM14.265 18.8438C14.265 18.3797 14.6521 18 15.1253 18H17.993C18.4662 18 18.8533 18.3797 18.8533 18.8438V21.6562C18.8533 22.1203 18.4662 22.5 17.993 22.5H15.1253C14.6521 22.5 14.265 22.1203 14.265 21.6562V18.8438ZM14.265 27.8438C14.265 27.3797 14.6521 27 15.1253 27H17.993C18.4662 27 18.8533 27.3797 18.8533 27.8438V30.6562C18.8533 31.1203 18.4662 31.5 17.993 31.5H15.1253C14.6521 31.5 14.265 31.1203 14.265 30.6562V27.8438ZM5.08833 18.8438C5.08833 18.3797 5.47547 18 5.94865 18H8.81635C9.28953 18 9.67667 18.3797 9.67667 18.8438V21.6562C9.67667 22.1203 9.28953 22.5 8.81635 22.5H5.94865C5.47547 22.5 5.08833 22.1203 5.08833 21.6562V18.8438ZM5.08833 27.8438C5.08833 27.3797 5.47547 27 5.94865 27H8.81635C9.28953 27 9.67667 27.3797 9.67667 27.8438V30.6562C9.67667 31.1203 9.28953 31.5 8.81635 31.5H5.94865C5.47547 31.5 5.08833 31.1203 5.08833 30.6562V27.8438ZM29.1771 4.5H25.7358V1.125C25.7358 0.50625 25.2196 0 24.5887 0H22.2946C21.6637 0 21.1475 0.50625 21.1475 1.125V4.5H11.9708V1.125C11.9708 0.50625 11.4546 0 10.8237 0H8.52958C7.89869 0 7.3825 0.50625 7.3825 1.125V4.5H3.94125C2.04139 4.5 0.5 6.01172 0.5 7.875V11.25H32.6183V7.875C32.6183 6.01172 31.0769 4.5 29.1771 4.5Z" fill="black"/>
</svg>
