<svg width="207" height="348" viewBox="0 0 207 348" fill="none" xmlns="http://www.w3.org/2000/svg">
<path d="M66.3174 207.01C65.9684 207.01 65.6195 206.932 65.2914 206.766C47.2132 197.589 36.8851 174.984 41.7705 155.313C43.2705 149.281 45.9789 143.688 48.5987 138.276C49.9684 135.453 51.3799 132.542 52.5778 129.635C55.4164 122.76 57.9997 112.859 54.1768 104.755C53.6403 103.625 54.1299 102.276 55.2601 101.74C56.3903 101.203 57.7445 101.693 58.2757 102.823C61.9164 110.531 61.4059 120.135 56.7705 131.37C55.5153 134.396 54.0726 137.375 52.682 140.25C50.0466 145.693 47.557 150.828 46.1716 156.406C41.7705 174.115 51.0726 194.458 67.3434 202.724C68.458 203.286 68.9059 204.651 68.3382 205.771C67.9372 206.557 67.1403 207.01 66.3174 207.01Z" fill="white"/>
<path d="M116.411 207.01C115.984 207.01 115.547 206.885 115.167 206.635C99.9688 196.615 93.1042 175.427 99.5365 158.396C101.557 153.062 104.651 148.276 107.651 143.651C110.49 139.266 113.172 135.125 115.026 130.542C120.245 117.635 118.26 100.937 109.724 85.875C101.719 71.7604 89.2813 60.1979 78.3073 49.9896C77.3906 49.1354 77.3385 47.7031 78.1927 46.7865C79.0417 45.8698 80.4792 45.8177 81.3958 46.6719C92.6094 57.099 105.318 68.9167 113.667 83.6406C123.021 100.135 125.047 117.849 119.229 132.24C117.208 137.229 114.286 141.745 111.453 146.115C108.458 150.745 105.625 155.115 103.781 160C98.0625 175.125 104.161 193.948 117.661 202.849C118.708 203.536 118.995 204.943 118.307 205.99C117.87 206.651 117.146 207.01 116.411 207.01Z" fill="white"/>
<path d="M143.782 207.01C143.501 207.01 143.214 206.953 142.933 206.844C133.11 202.865 129.803 190.615 132.282 181.068C134.74 171.589 141.464 164.099 147.402 157.49C152.969 151.286 159.282 144.26 161.422 135.771C164.214 124.719 159.277 114.26 156.089 109.01C151.047 100.719 143.808 93.8333 136.808 87.1771C135.896 86.3177 135.865 84.8802 136.725 83.974C137.589 83.0677 139.021 83.0313 139.933 83.8906C147.146 90.7552 154.61 97.849 159.964 106.656C166.11 116.771 168.188 127.505 165.818 136.885C163.402 146.453 156.402 154.25 150.771 160.516C145.183 166.74 138.85 173.797 136.667 182.208C134.725 189.698 137.219 199.635 144.636 202.641C145.792 203.109 146.355 204.432 145.886 205.594C145.527 206.474 144.678 207.01 143.782 207.01Z" fill="white"/>
<mask id="mask0_10784_1986" style="mask-type:luminance" maskUnits="userSpaceOnUse" x="0" y="220" width="207" height="128">
<path d="M0.333496 220.01H207V348H0.333496V220.01Z" fill="white"/>
</mask>
<g mask="url(#mask0_10784_1986)">
<path d="M98.5679 348.167C81.8387 348.167 64.4012 347.724 46.0731 346.844C42.9846 346.693 40.0158 345.354 37.9169 343.167C8.40643 312.422 -2.33315 280 2.01581 234.76C2.58352 228.839 7.50539 224.281 13.4689 224.161C76.6408 222.896 132.052 221.562 192.787 220.083C198.672 219.932 203.771 224.182 204.651 229.953C210.995 271.443 198.568 313.339 171.412 342.021C169.412 344.135 166.662 345.432 163.672 345.677C143.031 347.339 121.469 348.167 98.5679 348.167ZM6.52623 235.193C2.31789 278.984 12.6877 310.333 41.1877 340.026C42.4898 341.385 44.3491 342.219 46.2919 342.313C89.5106 344.396 127.792 344.016 163.307 341.156C165.177 341.005 166.886 340.203 168.12 338.906C194.318 311.229 206.302 270.755 200.167 230.635C199.63 227.115 196.516 224.542 192.896 224.615C132.162 226.099 76.745 227.427 13.5627 228.693C9.90123 228.766 6.87518 231.562 6.52623 235.193Z" fill="white"/>
</g>
<path d="M103.292 326.807C97.6045 326.807 91.9951 326.573 88.391 326.104C65.7035 323.136 44.2608 310.719 31.0368 292.875C30.3129 291.901 30.1931 290.615 30.7295 289.516C31.2712 288.417 32.3649 287.714 33.5889 287.682C43.3076 287.459 53.917 287.214 64.1826 288.932C61.5368 279.755 60.641 269.865 59.9066 259.177C59.8389 258.136 60.2764 257.12 61.0889 256.453C61.8962 255.792 62.9847 255.557 63.9899 255.834C73.6879 258.474 81.0889 261.74 87.1462 266.11C89.917 257.292 94.5837 249.182 100.828 242.584C101.511 241.865 102.474 241.453 103.469 241.453H103.474C104.469 241.453 105.433 241.865 106.115 242.584C112.443 249.261 117.177 257.391 120.006 266.162C125.99 261.818 133.282 258.573 142.823 255.943C143.922 255.641 145.11 255.891 145.995 256.615C146.881 257.339 147.36 258.453 147.282 259.589C146.584 269.75 145.677 279.677 143.026 288.912C153.162 287.203 163.662 287.453 173.927 287.693C175.089 287.719 176.131 288.386 176.646 289.432C177.157 290.474 177.052 291.698 176.365 292.63C163.162 310.589 142.532 322.74 119.761 325.974C115.891 326.526 109.547 326.807 103.292 326.807ZM88.9795 321.61C96.1097 322.542 112.167 322.474 119.12 321.49C139.74 318.557 158.5 307.922 171.021 292.162C161.073 291.943 150.964 291.891 141.417 293.828C140.573 296.104 139.594 298.334 138.464 300.505C136.907 303.5 134.584 307.084 130.453 308.245C128.438 308.813 126.292 308.563 124.573 307.563C122.808 306.531 121.667 304.917 121.349 303.011C120.985 300.818 121.724 298.412 123.323 296.568C125.006 294.625 127.24 293.547 129.401 292.677C132.214 291.542 135.078 290.646 137.985 289.943C140.917 281.021 141.907 271.281 142.662 260.703C133.61 263.318 126.823 266.537 121.318 270.854C122.469 275.677 123.052 280.651 123.016 285.646C123 288.24 122.792 291.25 121.391 293.906C119.688 297.141 116.396 299.099 113.209 298.771C110.188 298.469 107.443 296.099 106.381 292.88C105.511 290.25 105.657 287.162 106.823 283.432C108.365 278.511 111.151 274.021 114.875 270.448C115.313 270.031 115.75 269.625 116.203 269.224C113.756 260.761 109.407 252.88 103.474 246.401C97.6358 252.797 93.3597 260.662 90.9587 269.172C91.4274 269.589 91.891 270.011 92.3441 270.448C96.0681 274.021 98.8545 278.511 100.396 283.432C101.563 287.162 101.709 290.25 100.839 292.88C99.7764 296.099 97.0316 298.469 94.016 298.771C90.8233 299.099 87.5368 297.141 85.8285 293.906C84.4274 291.25 84.2191 288.24 84.2035 285.646C84.167 280.625 84.7347 275.641 85.8597 270.818C80.3649 266.521 73.5837 263.313 64.5576 260.703C65.3181 271.307 66.3285 281.068 69.2451 289.959C72.1566 290.656 75.0264 291.547 77.8181 292.677C79.9795 293.547 82.2139 294.625 83.8962 296.563C85.4951 298.412 86.2347 300.818 85.8701 303.011C85.5576 304.917 84.4118 306.531 82.6514 307.563C80.9274 308.563 78.7868 308.813 76.7712 308.245C72.6358 307.084 70.3181 303.5 68.7556 300.505C67.6149 298.323 66.6358 296.094 65.792 293.823C56.2139 291.875 46.1201 291.943 36.2035 292.162C48.7972 307.964 68.3389 318.912 88.9795 321.61ZM71.2295 295.172C71.7035 296.266 72.2191 297.344 72.7764 298.406C73.9847 300.729 75.5524 303.193 77.9951 303.88C78.8233 304.115 79.7087 304.026 80.3649 303.641C80.9743 303.287 81.3024 302.854 81.4014 302.266C81.542 301.422 81.1774 300.349 80.4743 299.537C79.417 298.318 77.7556 297.542 76.1201 296.88C74.5108 296.229 72.8806 295.662 71.2295 295.172ZM135.995 295.172C134.339 295.667 132.703 296.229 131.099 296.88C129.464 297.542 127.802 298.323 126.745 299.537C126.042 300.349 125.683 301.422 125.823 302.266C125.917 302.854 126.245 303.287 126.855 303.641C127.511 304.026 128.396 304.115 129.224 303.88C131.667 303.193 133.235 300.729 134.443 298.406C135 297.344 135.516 296.266 135.995 295.172ZM117.427 274.302C114.547 277.25 112.381 280.854 111.151 284.787C110.276 287.578 110.125 289.761 110.683 291.459C111.188 292.979 112.417 294.136 113.667 294.261C115.167 294.417 116.672 293.136 117.381 291.792C118.328 290 118.469 287.766 118.485 285.615C118.511 281.807 118.146 278.016 117.427 274.302ZM89.7608 274.271C89.0629 277.985 88.7087 281.787 88.7347 285.615C88.7504 287.766 88.8962 290 89.8389 291.792C90.5472 293.136 92.0524 294.417 93.5576 294.261C94.8076 294.136 96.0316 292.985 96.5368 291.459C97.0941 289.761 96.9431 287.578 96.0681 284.787C94.8337 280.844 92.6566 277.224 89.7608 274.271Z" fill="white"/>
</svg>
