<svg width="38" height="36" viewBox="0 0 38 36" fill="none" xmlns="http://www.w3.org/2000/svg">
<g clip-path="url(#clip0_10701_1164)">
<path d="M34.8484 0C36.4464 0 37.7985 1.22927 37.86 2.75122V33.1902C37.86 34.7707 36.5079 36 34.9099 36H2.95013C1.29068 36 0 34.7122 0 33.1902V2.75122C0 1.22927 1.29068 0 2.88867 0H34.8484ZM34.8484 1.99024H2.88867C2.45844 1.99024 2.08968 2.34146 2.08968 2.75122V33.1902C2.08968 33.6 2.45844 33.9512 2.88867 33.9512H34.8484C35.2786 33.9512 35.6474 33.6 35.6474 33.1902V2.75122C35.6474 2.34146 35.2786 1.99024 34.8484 1.99024ZM23.601 29.6195C24.2156 29.6195 24.7073 30.0878 24.7073 30.6732C24.7073 31.2585 24.2156 31.7268 23.601 31.7268H22.6791C22.0645 31.7268 21.5728 31.2585 21.5728 30.6732C21.5728 30.0878 22.0645 29.6195 22.6791 29.6195H23.601ZM29.3169 29.6195C29.9315 29.6195 30.4232 30.0878 30.4232 30.6732C30.4232 31.2585 29.9315 31.7268 29.3169 31.7268H28.395C27.7804 31.7268 27.2887 31.2585 27.2887 30.6732C27.2887 30.0878 27.7804 29.6195 28.395 29.6195H29.3169ZM11.1244 18.3805C13.7058 18.3805 15.8569 20.4293 15.8569 22.8878C15.8569 25.3463 13.7058 27.3951 11.1244 27.3951C8.54308 27.3951 6.39195 25.3463 6.39195 22.8878C6.39195 20.4293 8.54308 18.3805 11.1244 18.3805ZM26.6126 18.3805C29.2555 18.3805 31.3451 20.4293 31.3451 22.8878C31.3451 25.3463 29.194 27.3951 26.6126 27.3951C24.0313 27.3951 21.8801 25.3463 21.8801 22.8878C21.8801 20.4293 24.0313 18.3805 26.6126 18.3805ZM11.1244 20.4293C9.71084 20.4293 8.54308 21.5415 8.54308 22.8878C8.54308 24.2341 9.71084 25.3463 11.1244 25.3463C12.5381 25.3463 13.7058 24.2341 13.7058 22.8878C13.7058 21.5415 12.5381 20.4293 11.1244 20.4293ZM26.6126 20.4293C25.199 20.4293 24.0313 21.5415 24.0313 22.8878C24.0313 24.2341 25.199 25.3463 26.6126 25.3463C28.0262 25.3463 29.194 24.2341 29.194 22.8878C29.194 21.5415 28.0262 20.4293 26.6126 20.4293ZM11.1244 5.32683C13.7058 5.32683 15.8569 7.31707 15.8569 9.83415C15.8569 12.2927 13.7058 14.3415 11.1244 14.3415C8.54308 14.3415 6.39195 12.2927 6.39195 9.83415C6.39195 7.37561 8.54308 5.32683 11.1244 5.32683ZM26.6126 5.32683C29.2555 5.32683 31.3451 7.31707 31.3451 9.83415C31.3451 12.2927 29.194 14.3415 26.6126 14.3415C24.0313 14.3415 21.8801 12.2927 21.8801 9.83415C21.8801 7.37561 24.0313 5.32683 26.6126 5.32683ZM11.1244 7.37561C9.71084 7.37561 8.54308 8.4878 8.54308 9.83415C8.54308 11.1805 9.71084 12.2927 11.1244 12.2927C12.5381 12.2927 13.7058 11.1805 13.7058 9.83415C13.7058 8.4878 12.5381 7.37561 11.1244 7.37561ZM26.6126 7.37561C25.199 7.37561 24.0313 8.4878 24.0313 9.83415C24.0313 11.1805 25.199 12.2927 26.6126 12.2927C28.0262 12.2927 29.194 11.1805 29.194 9.83415C29.194 8.4878 28.0262 7.37561 26.6126 7.37561Z" fill="black"/>
</g>
<defs>
<clipPath id="clip0_10701_1164">
<rect width="37.86" height="36" fill="white"/>
</clipPath>
</defs>
</svg>
