<svg width="80" height="72" viewBox="0 0 80 72" fill="none" xmlns="http://www.w3.org/2000/svg">
<path d="M69.5937 64.1244C69.7996 64.1244 70.2114 64.3304 70.4173 64.7422C70.6232 65.5657 70.6232 66.5952 70.4173 67.4188C70.4173 67.8306 69.7996 68.0364 69.5937 68.0364C49.6219 68.2423 29.6501 68.2423 9.67836 68.0364C8.64889 68.0364 8.8548 65.7716 9.0607 64.7422C9.0607 64.3304 9.47248 64.3303 9.88427 64.3303C29.6502 63.9186 49.6219 63.9185 69.5937 64.1244Z" fill="white"/>
<path d="M17.2965 18.6217C17.7083 17.1805 18.3259 15.7392 17.7083 14.5038C17.0906 13.0626 12.5609 14.5039 12.9727 11.0037C13.1786 9.15061 14.8258 7.91524 16.267 7.91524C17.0906 7.91524 18.1201 8.12112 18.9436 7.70933C20.179 7.09165 18.9436 5.23861 18.5318 4.82682C18.12 4.62092 17.7083 4.41499 17.2965 4.2091C19.1496 3.59141 21.0026 6.0622 19.9731 8.12115C18.9436 10.1801 14.208 8.53294 14.4139 11.2096C14.6198 12.8567 16.6788 12.8567 17.5024 13.0626C19.3554 13.6803 18.7377 16.3569 17.7083 18.21C17.7083 18.4159 17.5024 18.4158 17.2965 18.6217Z" fill="white"/>
<path d="M64.8573 67.8306C64.8573 69.066 64.8573 70.3013 64.8573 71.3308C64.8573 72.1544 63.6219 71.9485 62.7983 71.9485C62.3865 71.9485 61.7689 72.1544 61.563 71.7426C60.9453 70.7131 61.3571 69.2719 61.3571 67.8306C62.5925 67.8306 63.8278 67.8306 64.8573 67.8306Z" fill="white"/>
<path d="M17.5032 67.6248C17.5032 67.8307 17.7091 67.8307 17.5032 67.6248C17.7091 68.8602 17.7092 69.8896 17.7092 71.125C17.7092 72.3604 15.6502 71.7427 14.6207 71.7427C14.4148 71.7427 14.209 71.3309 14.209 71.125C14.209 70.0955 14.209 68.8602 14.209 67.8307C14.4149 67.8307 14.4148 67.8307 17.5032 67.6248Z" fill="white"/>
<path d="M16.8843 19.0336L23.0611 26.8575C22.4434 27.887 22.0316 28.9165 21.8257 30.1519L15.0312 20.8866C16.6784 21.9161 17.502 20.8866 16.8843 19.0336Z" fill="white"/>
<path d="M13.1779 16.1511C14.8251 14.9157 16.6781 18.4159 17.0899 19.2395C17.7076 21.0925 17.0899 22.5338 15.031 20.8866C14.2074 20.2689 11.5308 17.1805 13.1779 16.1511Z" fill="#CCCDCF"/>
<path d="M30.6805 13.2685C29.8569 11.4155 28.2097 8.94472 28.8274 7.70935C29.6509 6.26809 32.3276 9.1506 33.1512 6.47397C33.5629 5.4445 33.1512 4.00323 30.4745 4.41502C29.0333 4.62092 28.2097 4.00322 27.7979 3.17964C27.1802 1.94427 29.0333 -1.35 31.7099 2.76789C31.7099 2.76789 31.7099 0.503011 30.0627 0.0912211C27.592 -0.526463 26.7684 2.15018 27.1802 3.38555C27.1802 3.38555 27.1802 5.03269 30.0627 5.23859C31.2981 5.44448 32.7394 5.03274 32.7394 6.06222C32.5335 7.70937 29.2392 6.26811 28.6215 7.09169C28.0038 7.70937 28.0038 8.32705 29.2392 11.0037C29.8568 12.4449 30.4746 13.0626 30.6805 13.2685Z" fill="white"/>
<path d="M33.5616 12.8568L35.6205 24.3869C34.3852 25.6222 34.5911 25.6222 33.7675 27.0635L31.0908 13.6803C32.3262 15.5334 33.3557 14.9157 33.5616 12.8568Z" fill="white"/>
<path d="M31.5028 8.73882C33.5617 8.32703 33.7676 12.239 33.7676 13.0626C33.5617 14.9157 32.5322 15.9451 31.2969 13.6803C30.6792 12.8567 29.6497 8.94472 31.5028 8.73882Z" fill="#CCCDCF"/>
<mask id="mask0_10947_1937" style="mask-type:luminance" maskUnits="userSpaceOnUse" x="30" y="20" width="19" height="39">
<path d="M48.5935 20.6807H30.6807V58.9771H48.5935V20.6807Z" fill="white"/>
</mask>
<g mask="url(#mask0_10947_1937)">
<path d="M48.3879 38.1818C48.182 34.8875 46.9467 31.7991 45.7113 29.1224C43.2406 23.9751 39.7404 20.6807 39.7404 20.6807C39.7404 20.6807 36.2402 23.9751 33.7694 29.1224C32.5341 31.7991 31.2987 34.8875 31.0928 38.1818C31.0928 38.5936 31.0928 39.2113 31.0928 39.6231C31.0928 43.1233 32.1223 46.4176 33.3576 49.0942C35.4166 53.8298 38.505 57.1241 39.5345 58.3595C38.2991 56.7123 33.9753 50.1237 33.9753 42.5056C33.9753 33.4462 39.7404 26.2399 39.7404 26.2399C39.7404 26.2399 45.5054 33.4462 45.5054 42.5056C45.5054 50.1237 41.3875 56.7123 39.9463 58.3595C40.9758 57.33 44.0642 53.8298 46.1231 49.0942C47.3585 46.2117 48.3879 43.1233 48.3879 39.6231C48.3879 39.2113 48.3879 38.7995 48.3879 38.1818Z" fill="white"/>
</g>
<path d="M22.8553 51.9767C16.2667 45.594 15.4431 36.1228 15.4431 36.1228C15.4431 36.1228 24.0907 36.7405 30.4734 42.0938C30.4734 41.2702 30.2675 40.6525 30.2675 39.8289C30.2675 39.4171 30.2675 38.7994 30.2675 38.3876C27.5909 36.1228 24.7084 34.6816 21.8258 33.858C16.2667 32.0049 11.3252 32.0049 11.3252 32.0049C11.3252 32.0049 11.3252 36.7405 13.1783 42.0938C14.2078 44.7704 15.649 47.8588 17.9139 50.3296C18.3256 50.7414 18.5315 50.9472 18.9433 51.359C24.0907 56.3005 31.297 57.9477 35.6208 58.5653C32.3265 57.7418 26.9732 56.0946 22.8553 51.9767Z" fill="white"/>
<path d="M6.58907 46.0058C6.58907 46.0058 9.67749 44.9763 13.7954 44.5645C13.3836 43.7409 12.9718 42.9174 12.7659 42.0938C7.00086 42.5056 4.32422 44.9763 4.32422 44.9763C4.32422 44.9763 4.32421 48.6824 8.23621 53.0062C9.26568 52.5944 10.0893 52.1826 11.3246 51.7708C8.23621 48.6824 6.58907 46.0058 6.58907 46.0058Z" fill="white"/>
<mask id="mask1_10947_1937" style="mask-type:luminance" maskUnits="userSpaceOnUse" x="0" y="50" width="40" height="15">
<path d="M39.3259 50.7413H0V64.3304H39.3259V50.7413Z" fill="white"/>
</mask>
<g mask="url(#mask1_10947_1937)">
<path d="M26.3537 62.6833C17.0885 63.3009 9.26443 57.7417 9.26443 57.7417C9.26443 57.7417 13.1765 54.0357 18.9415 51.9767C18.7356 51.7708 18.3238 51.359 18.1179 51.1531C14.6177 51.359 11.5293 52.3885 8.85268 53.8297C3.49942 56.3005 0.205078 55.4769 0.205078 55.4769C0.205078 55.4769 9.05855 64.7422 19.7651 64.7422C30.4716 64.7422 39.3251 59.5948 39.3251 59.5948C39.3251 59.5948 38.5015 59.5948 37.2661 59.3889C34.1777 60.8302 30.4716 62.2715 26.3537 62.6833Z" fill="white"/>
</g>
<path d="M25.5322 26.2399C25.5322 26.2399 28.6205 27.887 31.9149 30.9754C32.3266 30.1519 32.5325 29.3283 32.9443 28.5047C28.6205 24.7986 24.7085 25.0045 24.7085 25.0045C24.7085 25.0045 22.0319 27.2693 21.6201 33.0344C22.6496 33.4462 23.6791 33.858 24.7085 34.2698C24.7085 29.5342 25.5322 26.2399 25.5322 26.2399Z" fill="white"/>
<path d="M56.4169 51.9767C63.0055 45.594 63.829 36.1228 63.829 36.1228C63.829 36.1228 55.1815 36.7405 48.7987 42.0938C48.7987 41.2702 49.0046 40.6525 49.0046 39.8289C49.0046 39.4171 49.0046 38.7994 49.0046 38.3876C51.6813 36.1228 54.5638 34.6816 57.4463 33.858C63.0055 32.0049 67.9469 32.0049 67.9469 32.0049C67.9469 32.0049 67.9469 36.7405 66.0939 42.0938C65.0644 44.7704 63.6232 47.8588 61.3583 50.3296C60.9465 50.7414 60.7406 50.9472 60.3288 51.359C55.1815 56.3005 47.9752 57.9477 43.6514 58.5653C46.9457 57.7418 52.299 56.0946 56.4169 51.9767Z" fill="white"/>
<path d="M72.8889 46.0058C72.8889 46.0058 69.8005 44.9763 65.6826 44.5645C66.0944 43.7409 66.5062 42.9174 66.7121 42.0938C72.4771 42.5056 75.1537 44.9763 75.1537 44.9763C75.1537 44.9763 75.1537 48.6824 71.2417 53.0062C70.2123 52.5944 69.3887 52.1826 68.1533 51.7708C71.2417 48.6824 72.8889 46.0058 72.8889 46.0058Z" fill="white"/>
<mask id="mask2_10947_1937" style="mask-type:luminance" maskUnits="userSpaceOnUse" x="40" y="50" width="40" height="15">
<path d="M79.4753 50.7413H40.1494V64.3304H79.4753V50.7413Z" fill="white"/>
</mask>
<g mask="url(#mask2_10947_1937)">
<path d="M52.9157 62.6833C62.1809 63.3009 70.0049 57.7417 70.0049 57.7417C70.0049 57.7417 66.0929 54.0357 60.3279 51.9767C60.5338 51.7708 60.9456 51.359 61.1515 51.1531C64.6517 51.359 67.7401 52.3885 70.4167 53.8297C75.77 56.3005 79.0643 55.4769 79.0643 55.4769C79.0643 55.4769 70.2109 64.7422 59.5043 64.7422C48.7978 64.7422 39.9443 59.5948 39.9443 59.5948C39.9443 59.5948 40.7679 59.5948 42.0033 59.3889C45.0917 60.8302 48.7978 62.2715 52.9157 62.6833Z" fill="white"/>
</g>
<path d="M53.9454 26.2399C53.9454 26.2399 50.857 27.887 47.5627 30.9754C47.1509 30.1519 46.945 29.3283 46.5332 28.5047C50.857 24.7986 54.769 25.0045 54.769 25.0045C54.769 25.0045 57.4456 27.2693 57.8574 33.0344C56.8279 33.4462 55.7985 33.858 54.769 34.2698C54.769 29.5342 53.9454 26.2399 53.9454 26.2399Z" fill="white"/>
</svg>
