<svg width="31" height="24" viewBox="0 0 31 24" fill="none" xmlns="http://www.w3.org/2000/svg">
<path id="Vector" d="M30.571 13.0617L20.2371 23.5599C19.3144 24.4973 17.7152 23.8411 17.7152 22.4976V16.4986H9.34967C8.53157 16.4986 7.87341 15.83 7.87341 14.9988V8.99984C7.87341 8.16872 8.53157 7.50008 9.34967 7.50008H17.7152V1.50108C17.7152 0.163802 19.3083 -0.498588 20.2371 0.438756L30.571 10.937C31.143 11.5244 31.143 12.4743 30.571 13.0617ZM11.8101 23.2475V20.7479C11.8101 20.3355 11.478 19.998 11.072 19.998H5.90506C4.81631 19.998 3.9367 19.1044 3.9367 17.9983V6.00033C3.9367 4.89427 4.81631 4.00067 5.90506 4.00067H11.072C11.478 4.00067 11.8101 3.66322 11.8101 3.25079V0.751205C11.8101 0.338773 11.478 0.00132907 11.072 0.00132907H5.90506C2.64497 0.00132907 0 2.68838 0 6.00033V17.9983C0 21.3103 2.64497 23.9973 5.90506 23.9973H11.072C11.478 23.9973 11.8101 23.6599 11.8101 23.2475Z" fill="black"/>
</svg>
