<svg width="162" height="82" viewBox="0 0 162 82" fill="none" xmlns="http://www.w3.org/2000/svg">
<mask id="mask0_10976_2076" style="mask-type:luminance" maskUnits="userSpaceOnUse" x="0" y="0" width="162" height="82">
<path d="M0 0H162V81.1775H0V0Z" fill="white"/>
</mask>
<g mask="url(#mask0_10976_2076)">
<path fill-rule="evenodd" clip-rule="evenodd" d="M126.21 55.8576C129.472 55.8576 132.117 58.4907 132.117 61.8314C132.117 65.1692 129.472 67.8053 126.21 67.8053C122.932 67.8053 120.29 65.1692 120.29 61.8314C120.29 58.4907 122.929 55.8576 126.21 55.8576ZM36.2213 55.8576C39.496 55.8576 42.1409 58.4907 42.1409 61.8314C42.1409 65.1692 39.496 67.8053 36.2213 67.8053C32.9559 67.8053 30.311 65.1692 30.311 61.8314C30.311 58.4907 32.9559 55.8576 36.2213 55.8576ZM157.635 37.9146V45.0517C157.635 45.8717 157.463 46.2301 157.19 46.5095C156.929 46.7919 156.388 47.1139 155.264 47.2839L106.62 54.5911C106.586 52.5836 106.427 50.6126 106.132 48.6597L152.124 45.0639C152.785 45.0092 153.372 44.6508 153.712 44.0981L157.635 37.9146ZM4.79268 37.9146L8.71858 44.1011C9.05649 44.6508 9.64629 45.0122 10.3037 45.0669L56.284 48.6628C55.9891 50.6156 55.8293 52.5866 55.7986 54.5941L7.16419 47.2839C6.03988 47.1139 5.49922 46.7919 5.23811 46.5095C4.96471 46.2271 4.79268 45.8717 4.79268 45.0517V37.9146ZM98.4121 29.5081L111.314 29.5749C112.082 29.587 112.322 30.3706 112.322 30.9628C112.322 32.1624 111.686 32.3659 110.995 32.4692L101.496 33.9907C100.633 32.4449 99.6132 30.9294 98.4121 29.5081ZM64.0282 29.5081C62.8271 30.9294 61.8072 32.4449 60.944 33.9907L51.4365 32.4692C50.1524 32.2627 50.0971 31.7707 50.0971 30.9628C50.0971 30.1458 50.6624 29.587 51.1047 29.5749L64.0282 29.5081ZM81.2125 25.4171C90.3053 25.4171 95.5337 30.9993 98.5595 37.1311C99.988 40.0315 100.996 43.4056 101.721 47.1048C102.538 51.22 102.811 55.3443 102.323 59.5688C101.198 69.2753 92.6062 76.9985 81.2125 76.9985C69.8311 76.9985 61.2389 69.2753 60.1269 59.5688C59.6385 55.3443 59.8904 51.22 60.7044 47.1048C61.4294 43.4056 62.4523 40.0315 63.8808 37.1311C66.8974 30.9993 72.1258 25.4171 81.2125 25.4171ZM81.2125 4.54649C82.1095 4.54649 83.0065 5.44546 83.2338 7.25858L85.0462 21.6603C83.8359 21.4599 82.5487 21.3505 81.2125 21.3505C79.8793 21.3505 78.5952 21.4599 77.3726 21.6603L79.2096 7.25858C79.4461 5.45761 80.3308 4.54649 81.2125 4.54649ZM81.2125 0.0546875C79.4215 0.0546875 77.8272 0.984027 76.8074 2.25959C75.7844 3.54123 75.2315 5.15087 75.1178 6.87895L73.0781 22.863C71.3547 23.5342 69.7881 24.4088 68.3596 25.4263L51.0955 25.5204C49.6241 25.5295 48.3185 26.2614 47.4768 27.1999C46.6382 28.1414 46.1497 29.2833 46.0146 30.5164C45.8794 31.7494 46.119 33.1039 46.9331 34.2489C47.7471 35.3939 49.1326 36.2321 50.773 36.4902L59.3774 37.866C58.5049 40.0527 57.6663 42.2637 57.0642 44.6265L11.6615 41.0732L8.40832 35.8737C7.48674 34.4038 6.12896 33.9695 4.8019 33.9543C4.35955 33.9543 3.93255 33.9999 3.52092 34.0667C1.86823 34.337 0.685547 36.0408 0.685547 37.9116V45.0517C0.685547 46.5976 1.15555 48.1556 2.243 49.3005C3.32124 50.4303 4.82648 51.0469 6.54981 51.305L29.1775 54.7156C27.3405 56.5379 26.1946 59.0616 26.1946 61.8314C26.1946 67.3467 30.695 71.8841 36.2183 71.8841C41.7477 71.8841 46.2388 67.3467 46.2388 61.8314C46.2388 60.1034 45.7627 58.5028 44.9916 57.0784L55.9338 58.7245C55.9645 59.1619 55.9768 59.6022 56.0228 60.0365C57.3837 71.8385 67.9234 81.0621 81.2094 81.0621C94.5107 81.0621 105.029 71.8385 106.399 60.0365C106.445 59.5992 106.457 59.1588 106.488 58.7245L117.43 57.0784C116.656 58.5028 116.183 60.1034 116.183 61.8314C116.183 67.3467 120.674 71.8841 126.204 71.8841C131.727 71.8841 136.227 67.3467 136.227 61.8314C136.227 59.0616 135.081 56.5379 133.244 54.7156L155.881 51.305C157.595 51.0469 159.101 50.4303 160.176 49.3005C161.263 48.1556 161.733 46.5976 161.733 45.0517V37.9116C161.733 36.0438 160.551 34.337 158.895 34.0667C158.486 33.9999 158.059 33.9543 157.617 33.9543C156.299 33.9665 154.929 34.4038 154.01 35.8737L150.757 41.0732L105.361 44.6296C104.749 42.2637 103.932 40.0558 103.048 37.8691L111.652 36.4933C113.28 36.2351 114.678 35.3939 115.492 34.2519C116.297 33.107 116.536 31.7524 116.398 30.5194C116.275 29.2864 115.79 28.1414 114.939 27.2029C114.1 26.2614 112.816 25.5326 111.342 25.5204L94.0653 25.4293C92.64 24.3997 91.0733 23.5251 89.3377 22.8539L87.3102 6.88503C87.0829 5.16909 86.6436 3.54427 85.6207 2.26263C84.6039 0.984027 83.0187 0.0546875 81.2125 0.0546875Z" fill="#CC9600"/>
</g>
<path fill-rule="evenodd" clip-rule="evenodd" d="M91.6277 39.0335L94.206 47.1623C90.7838 48.1879 86.5582 49.0294 82.652 49.3976V41.371C85.6212 40.9737 88.7579 40.0883 91.6277 39.0335ZM70.3565 39.0335C73.2326 40.0912 76.3228 40.8539 79.3323 41.2016V49.234C75.3827 48.9009 71.1942 48.1762 67.769 47.1623L70.3565 39.0335ZM92.7509 35.5914C92.6981 35.5914 92.6268 35.5914 92.5709 35.6031C92.3972 35.6207 92.2359 35.6674 92.0776 35.7405C88.8354 37.143 84.4856 38.1774 80.9921 38.4257C77.4893 38.1774 73.1644 37.143 69.9191 35.7405C69.6554 35.6323 69.3854 35.5827 69.1093 35.6031C68.4112 35.644 67.8248 36.0852 67.6325 36.7105L64.0707 47.8928C63.8194 48.6817 64.2569 49.5203 65.0791 49.8125C69.5902 51.3875 75.7395 52.3985 80.9921 52.3985C86.2603 52.3985 92.3879 51.3875 96.899 49.8125C97.7336 49.532 98.1835 48.6817 97.9291 47.8928L94.3673 36.7105C94.1625 36.0443 93.4986 35.5827 92.7509 35.5914Z" fill="#CC9600"/>
</svg>
