<svg width="38" height="36" viewBox="0 0 38 36" fill="none" xmlns="http://www.w3.org/2000/svg">
<g clip-path="url(#clip0_10701_1218)">
<path d="M24.3386 11.3507L24.6179 11.3606C25.9051 11.4526 26.9568 12.1797 27.4731 13.3081L34.664 29.4851H36.7537C37.3683 29.4851 37.86 29.8881 37.86 30.4638C37.86 31.0394 37.3683 31.5 36.7537 31.5H1.1063C0.491688 31.5 0 31.097 0 30.5213C0 29.9456 0.491688 29.4851 1.1063 29.4851H2.45844L8.72747 15.0928C9.21916 13.8838 10.3869 13.1354 11.8005 13.1354C13.2141 13.193 14.3819 13.8838 14.935 15.0928L17.7622 21.3678L21.2655 13.3081C21.7572 12.0991 22.925 11.3507 24.3386 11.3507ZM24.3386 13.4232L24.2782 13.4251C24.045 13.4385 23.5116 13.5384 23.2323 14.1141L18.8685 24.0736L21.327 29.5426H23.3552V28.161C22.126 27.6429 21.2655 26.2612 21.2655 24.5341C21.2655 22.3465 22.6791 20.677 24.4 20.677C26.1209 20.677 27.5345 22.4041 27.5345 24.5341C27.5345 26.2612 26.7356 27.6429 25.5063 28.161V29.5426H32.3285L25.4449 14.1141C25.199 13.4808 24.523 13.4232 24.3386 13.4232ZM11.8005 15.2079C11.6161 15.2079 11.0015 15.2655 10.6942 15.8987L4.7325 29.5426H18.9915L12.9068 15.8987C12.661 15.2655 11.9849 15.2079 11.8005 15.2079ZM24.4 22.6343C24.0313 22.6343 23.4167 23.3252 23.4167 24.4765C23.4167 25.6279 23.9698 26.3188 24.4 26.3188C24.8303 26.3188 25.3834 25.6279 25.3834 24.4765C25.3834 23.3252 24.7688 22.6343 24.4 22.6343ZM32.39 4.5C34.5411 4.5 36.262 6.11194 36.262 8.12687C36.262 10.1418 34.4796 11.7537 32.39 11.7537C30.3003 11.7537 28.5179 10.1418 28.5179 8.12687C28.5179 6.11194 30.2388 4.5 32.39 4.5ZM32.39 6.57249C31.4681 6.57249 30.6691 7.26333 30.6691 8.18443C30.6691 9.10554 31.4066 9.79638 32.39 9.79638C33.3733 9.79638 34.1109 9.10554 34.1109 8.18443C34.1109 7.26333 33.3119 6.57249 32.39 6.57249Z" fill="black"/>
</g>
<defs>
<clipPath id="clip0_10701_1218">
<rect width="37.86" height="36" fill="white"/>
</clipPath>
</defs>
</svg>
