<svg width="38" height="36" viewBox="0 0 38 36" fill="none" xmlns="http://www.w3.org/2000/svg">
<g clip-path="url(#clip0_10701_1182)">
<path d="M30.6174 12.1458L30.8221 12.1564C31.2918 12.2056 31.7026 12.4242 31.9719 12.774L35.5429 17.2861C35.9124 17.743 35.9739 18.3712 35.6661 18.8853C35.4814 19.1708 35.2351 19.3993 34.9273 19.5706L37.6363 23.8542C37.9441 24.3682 37.9441 24.9394 37.5747 25.4534C37.3284 25.9674 36.7743 26.253 36.1586 26.253H31.7257V31.2219C31.7257 31.7931 31.2331 32.25 30.6174 32.25C30.0017 32.25 29.5092 31.7931 29.5092 31.2219V26.253H25.0147C24.4605 26.253 23.9064 25.9103 23.5986 25.4534C23.2907 24.9965 23.2907 24.3682 23.5986 23.9113L26.3076 19.5706C25.9998 19.4564 25.7535 19.1708 25.5688 18.8853C25.2609 18.3712 25.3225 17.743 25.6919 17.2861L29.2629 12.774C29.5708 12.3742 30.0633 12.1458 30.6174 12.1458ZM10.1766 3.75C10.7307 3.75 11.2232 3.97846 11.5311 4.37826L17.3185 11.5746C17.688 12.0316 17.7495 12.6598 17.4417 13.1738C17.1338 13.6879 16.5797 14.0306 15.9025 14.0306L20.2739 21.1698C20.5817 21.6268 20.5817 22.255 20.2739 22.7119C20.0276 23.1688 19.4735 23.4544 18.8578 23.4544H11.3464V31.1648C11.3464 31.736 10.8538 32.1929 10.2381 32.1929C9.62244 32.1929 9.12988 31.736 9.12988 31.1648V23.4544H1.68005C1.06436 23.4544 0.510237 23.1117 0.202393 22.5977C-0.105452 22.1408 -0.043883 21.5125 0.263962 21.0556L5.06634 14.0306H4.51222C3.89653 14.0306 3.34241 13.6879 3.03456 13.1738C2.72672 12.6598 2.78829 12.0316 3.1577 11.5746L8.82204 4.37826C9.12988 3.97846 9.62243 3.75 10.1766 3.75ZM30.5559 14.4304L27.7853 17.9143C28.0315 18.0286 28.2778 18.257 28.401 18.4855C28.7088 18.9424 28.7088 19.5706 28.401 20.0276L25.8151 24.1969H35.2967L32.7108 20.0276C32.4029 19.5706 32.4029 18.9424 32.7108 18.4855C32.8339 18.257 33.0802 18.0286 33.3265 17.9143L30.5559 14.4304ZM10.1766 6.09168L5.43575 12.0887H5.86673C6.48242 12.0887 7.09811 12.4314 7.34439 12.8883C7.59066 13.3452 7.59066 13.9734 7.28282 14.4304L2.54201 21.4554H17.9342L13.5628 14.3732C13.255 13.9163 13.255 13.2881 13.5628 12.8312C13.8707 12.4314 14.3632 12.0887 14.9174 12.0887L10.1766 6.09168Z" fill="black"/>
</g>
<defs>
<clipPath id="clip0_10701_1182">
<rect width="37.86" height="36" fill="white"/>
</clipPath>
</defs>
</svg>
