<svg width="38" height="36" viewBox="0 0 38 36" fill="none" xmlns="http://www.w3.org/2000/svg">
<path d="M27.5932 23.9806C29.7966 21.7634 30.9298 18.7877 30.7409 15.7536L29.7337 3.20908C29.6078 1.40032 27.971 0 26.0194 0H11.8548C9.90325 0 8.26645 1.40032 8.14054 3.20908L7.13328 15.7536C6.88147 18.7877 8.01464 21.7634 10.281 23.9806C12.2325 25.9643 14.9395 27.1896 17.8354 27.423V33.8995H12.925C12.2955 33.8995 11.7919 34.3663 11.7919 34.9498C11.7919 35.5332 12.2955 36 12.925 36H24.9492C25.5787 36 26.0824 35.5332 26.0824 34.9498C26.0824 34.3663 25.5787 33.8995 24.9492 33.8995H20.0388V27.423C22.9347 27.1896 25.6417 25.9643 27.5932 23.9806ZM11.8548 2.04214H26.0194C26.7748 2.04214 27.4673 2.62561 27.5303 3.32577L27.971 8.57699H9.9662L10.4069 3.32577C10.4069 2.62561 11.0994 2.04214 11.8548 2.04214ZM9.39962 15.8703L9.77734 10.6775H28.0969L28.4746 15.8703C28.6635 18.3793 27.7821 20.7131 25.9564 22.5802C24.1308 24.389 21.6126 25.4392 18.9056 25.4392C16.1986 25.4392 13.7434 24.4473 11.8548 22.5802C10.0921 20.7715 9.21076 18.3793 9.39962 15.8703Z" fill="black"/>
</svg>
