<svg width="26" height="28" viewBox="0 0 26 28" fill="none" xmlns="http://www.w3.org/2000/svg">
<path d="M23.5219 22.31C23.3336 23.7065 22.3907 24.914 21.0712 25.4508C20.4247 25.7186 19.7241 25.7999 19.0236 25.7186C18.3507 25.6385 17.6765 25.4232 16.9772 25.0216C16.008 24.4835 15.0375 23.6526 13.9064 22.4176C15.6841 20.2428 16.7613 18.257 17.1655 16.4852C17.3538 15.653 17.3815 14.901 17.2998 14.2028C17.1919 13.5321 16.9496 12.9139 16.5729 12.3771C15.7381 11.1696 14.337 10.4714 12.7752 10.4714C11.2134 10.4714 9.81232 11.1959 8.97744 12.3771C8.6008 12.9139 8.3585 13.5321 8.25053 14.2028C8.14256 14.901 8.17018 15.6793 8.38487 16.4852C8.78912 18.257 9.89267 20.2704 11.644 22.4439C10.5392 23.6789 9.54365 24.511 8.57318 25.0479C7.87264 25.4508 7.19972 25.666 6.52679 25.7461C5.83253 25.8237 5.13073 25.7311 4.4804 25.4783C3.16092 24.9415 2.21807 23.7327 2.02975 22.3375C1.94941 21.6668 2.00339 20.9961 2.27206 20.2441C2.35241 19.975 2.488 19.7073 2.62233 19.3857C2.81065 18.9565 3.02659 18.4998 3.24127 18.043L3.26889 17.9892C5.12696 13.9888 7.12062 9.90827 9.19463 5.93537L9.27498 5.77395C9.49092 5.37228 9.7056 4.94183 9.92154 4.53891C10.1375 4.10971 10.3798 3.70679 10.6761 3.35768C11.2423 2.71325 11.9956 2.36414 12.8304 2.36414C13.6653 2.36414 14.4198 2.71325 14.9848 3.35768C15.2811 3.70679 15.5234 4.10971 15.7393 4.53891C15.9553 4.94183 16.1699 5.37103 16.3859 5.7727L16.4675 5.93412C18.5139 9.9333 20.5075 14.0138 22.3656 18.0142V18.0405C22.5815 18.4697 22.7699 18.954 22.9845 19.3832C23.1189 19.706 23.2545 19.9738 23.3348 20.2416C23.5495 20.9411 23.6298 21.6118 23.5219 22.31ZM12.7752 21.0474C11.3214 19.2218 10.3785 17.5037 10.0546 16.0547C9.92029 15.4366 9.89267 14.8997 9.97427 14.4167C10.0283 13.9875 10.1902 13.6109 10.4049 13.2893C10.9171 12.5648 11.7784 12.1081 12.7752 12.1081C13.772 12.1081 14.6609 12.5385 15.1455 13.2893C15.3614 13.6121 15.5221 13.9875 15.5761 14.4167C15.6565 14.8997 15.6301 15.4641 15.4958 16.0547C15.1731 17.4774 14.2303 19.1955 12.7752 21.0474ZM24.923 19.6522C24.7886 19.3306 24.653 18.9815 24.5187 18.6862C24.3028 18.2032 24.0881 17.7465 23.8985 17.3173L23.8722 17.291C22.0141 13.2643 20.0204 9.18377 17.92 5.15706L17.8397 4.99564C17.6238 4.59272 17.4091 4.16352 17.1931 3.73432C16.9232 3.25132 16.6545 2.74078 16.2239 2.25778C15.3614 1.1829 14.1223 0.592285 12.8028 0.592285C11.4557 0.592285 10.2442 1.1829 9.35408 2.20272C8.94982 2.68572 8.65353 3.19626 8.38487 3.67926C8.16893 4.10846 7.95424 4.53766 7.73831 4.94058L7.65796 5.10075C5.58395 9.12746 3.56392 13.208 1.70585 17.2347L1.67948 17.2885C1.49116 17.7177 1.27523 18.1744 1.05929 18.6574C0.914911 18.9753 0.780578 19.2981 0.655032 19.6234C0.30476 20.617 0.196791 21.5567 0.331125 22.5227C0.627412 24.5361 1.97451 26.2278 3.83259 26.9786C4.53313 27.2739 5.26004 27.4078 6.01457 27.4078C6.23051 27.4078 6.49917 27.3815 6.71511 27.354C7.60397 27.2464 8.5192 26.9523 9.40806 26.4418C10.5129 25.8249 11.5624 24.939 12.7476 23.6501C13.9327 24.939 15.0099 25.8249 16.0871 26.4418C16.9759 26.9523 17.8912 27.2464 18.78 27.354C18.996 27.3815 19.2646 27.4078 19.4806 27.4078C20.2351 27.4078 20.9884 27.2739 21.6626 26.9786C23.5482 26.2266 24.8677 24.5085 25.164 22.5227C25.38 21.5842 25.272 20.6458 24.923 19.6522Z" fill="#E0565B"/>
</svg>
