<svg width="38" height="36" viewBox="0 0 38 36" fill="none" xmlns="http://www.w3.org/2000/svg">
<g clip-path="url(#clip0_10701_1191)">
<path d="M33.066 7.65453H26.4897V5.60302C26.4897 3.31705 24.523 1.5 22.1874 1.5H15.6726C13.2756 1.5 11.3703 3.37567 11.3703 5.60302V7.65453H4.79396C2.15114 7.65453 0 9.70604 0 12.2265V17.9707C0 18.5568 0.491688 19.0258 1.1063 19.0258H1.65945V30.1625C1.65945 32.5657 3.68766 34.5 6.20756 34.5H31.6524C34.1723 34.5 36.2006 32.5657 36.2006 30.1625V19.0258H36.7537C37.3683 19.0258 37.86 18.5568 37.86 17.9707V12.2265C37.86 9.70604 35.7089 7.65453 33.066 7.65453ZM13.5214 5.60302C13.5214 4.48934 14.5048 3.55151 15.6726 3.55151H22.126C23.2937 3.55151 24.2771 4.48934 24.2771 5.60302V7.65453H13.5214V5.60302ZM2.2126 12.2265C2.2126 10.8783 3.38036 9.70604 4.85542 9.70604H33.1275C34.5411 9.70604 35.7703 10.8197 35.7703 12.2265V16.9742H2.2126V12.2265ZM34.0494 30.1039C34.0494 31.3934 32.9431 32.3899 31.6524 32.3899H6.20756C4.85542 32.3899 3.81058 31.3348 3.81058 30.1039V18.9671H11.3703V22.6012C11.3703 23.1874 11.862 23.6563 12.4766 23.6563C13.0912 23.6563 13.5829 23.1874 13.5829 22.6012V18.9671H24.4V22.6012C24.4 23.1874 24.8917 23.6563 25.5063 23.6563C26.1209 23.6563 26.6126 23.1874 26.6126 22.6012V18.9671H34.1723V30.1039H34.0494Z" fill="black"/>
</g>
<defs>
<clipPath id="clip0_10701_1191">
<rect width="37.86" height="36" fill="white"/>
</clipPath>
</defs>
</svg>
