<svg width="38" height="36" viewBox="0 0 38 36" fill="none" xmlns="http://www.w3.org/2000/svg">
<g clip-path="url(#clip0_10701_1200)">
<path d="M33.3485 0H11.1459C9.03723 0 7.36273 1.57792 7.36273 3.56494V6.37013C7.36273 8.00649 8.47907 9.35065 10.0915 9.75974V12.0974C10.0915 12.6818 10.5877 13.1494 11.2079 13.1494C11.8281 13.1494 12.3242 12.6818 12.3242 12.0974V9.93507H25.038C25.9063 9.93507 26.6505 10.6364 26.6505 11.4545V24.5455C26.6505 25.3636 25.9063 26.0649 25.038 26.0649H14.991C16.6655 24.8377 17.7198 22.9091 17.7198 20.8052C17.7198 20.2208 17.2237 19.7532 16.6035 19.7532H4.50987C3.88969 19.7532 3.39354 20.2208 3.39354 20.8052C3.39354 22.9091 4.44786 24.8377 6.12236 26.0649H4.57189C2.46326 26.0649 0.788757 27.6429 0.788757 29.6299V32.4351C0.788757 34.4221 2.46326 36 4.57189 36H33.2865C35.3951 36 37.0696 34.4221 37.0696 32.4351V3.56494C37.1317 1.63636 35.3951 0 33.3485 0ZM15.3631 21.7987C14.867 23.9026 12.8824 25.4221 10.5257 25.4221C8.16897 25.4221 6.18438 23.8442 5.68823 21.7987H15.3631ZM34.961 32.4351C34.961 33.2532 34.2168 33.9545 33.3485 33.9545H4.57189C3.70363 33.9545 2.95941 33.2532 2.95941 32.4351V29.6299C2.95941 28.8117 3.70363 28.1104 4.57189 28.1104H24.914C27.0226 28.1104 28.6971 26.5325 28.6971 24.5455V11.4545C28.6971 9.46753 27.0226 7.88961 24.914 7.88961H11.1459C10.2776 7.88961 9.53338 7.18831 9.53338 6.37013V3.56494C9.53338 2.74675 10.2776 2.04545 11.1459 2.04545H33.2865C34.1548 2.04545 34.899 2.74675 34.899 3.56494V32.4351H34.961Z" fill="black"/>
</g>
<defs>
<clipPath id="clip0_10701_1200">
<rect width="37.86" height="36" fill="white"/>
</clipPath>
</defs>
</svg>
