<svg width="64" height="50" viewBox="0 0 64 50" fill="none" xmlns="http://www.w3.org/2000/svg">
<path d="M52.5205 42.1978V43.9478C52.5205 46.8473 50.17 49.1978 47.2705 49.1978H5.27051C2.37098 49.1978 0.0205078 46.8473 0.0205078 43.9478V15.9478C0.0205078 13.0482 2.37098 10.6978 5.27051 10.6978H7.02051V15.9478H5.92676C5.75271 15.9478 5.58579 16.0169 5.46272 16.14C5.33965 16.263 5.27051 16.43 5.27051 16.604V43.2915C5.27051 43.4656 5.33965 43.6325 5.46272 43.7555C5.58579 43.8786 5.75271 43.9478 5.92676 43.9478H46.6143C46.7883 43.9478 46.9552 43.8786 47.0783 43.7555C47.2014 43.6325 47.2705 43.4656 47.2705 43.2915V42.1978H52.5205ZM57.1143 5.44775H16.4268C16.2527 5.44775 16.0858 5.51689 15.9627 5.63997C15.8396 5.76304 15.7705 5.92996 15.7705 6.104V32.7915C15.7705 32.9656 15.8396 33.1325 15.9627 33.2555C16.0858 33.3786 16.2527 33.4478 16.4268 33.4478H57.1143C57.2883 33.4478 57.4552 33.3786 57.5783 33.2555C57.7014 33.1325 57.7705 32.9656 57.7705 32.7915V6.104C57.7705 5.92996 57.7014 5.76304 57.5783 5.63997C57.4552 5.51689 57.2883 5.44775 57.1143 5.44775ZM57.7705 0.197754C60.67 0.197754 63.0205 2.54822 63.0205 5.44775V33.4478C63.0205 36.3473 60.67 38.6978 57.7705 38.6978H15.7705C12.871 38.6978 10.5205 36.3473 10.5205 33.4478V5.44775C10.5205 2.54822 12.871 0.197754 15.7705 0.197754H57.7705ZM28.8955 12.4478C28.8955 14.864 26.9367 16.8228 24.5205 16.8228C22.1043 16.8228 20.1455 14.864 20.1455 12.4478C20.1455 10.0316 22.1043 8.07275 24.5205 8.07275C26.9367 8.07275 28.8955 10.0316 28.8955 12.4478ZM21.0205 22.9478L25.3425 18.6258C25.855 18.1133 26.686 18.1133 27.1987 18.6258L31.5205 22.9478L42.8425 11.6258C43.355 11.1133 44.186 11.1133 44.6987 11.6258L52.5205 19.4478V28.1978H21.0205V22.9478Z" fill="#FFFDFD"/>
</svg>
