<svg width="78" height="142" viewBox="0 0 78 142" fill="none" xmlns="http://www.w3.org/2000/svg">
<mask id="mask0_10937_6160" style="mask-type:luminance" maskUnits="userSpaceOnUse" x="0" y="0" width="78" height="142">
<path d="M0 0H77.3106V142H0V0Z" fill="white"/>
</mask>
<g mask="url(#mask0_10937_6160)">
<path d="M39.4346 0.178711C39.2063 0.178711 38.9825 0.196827 38.7565 0.202002C38.5282 0.196827 38.3021 0.178711 38.0739 0.178711C17.0357 0.178711 -0.0185547 20.7399 -0.0185547 46.099C-0.0185547 50.4287 1.43173 60.4336 3.61164 64.5847L38.7565 141.754L73.8968 64.5847C76.0767 60.4336 77.527 50.4287 77.527 46.099C77.527 20.7399 60.475 0.178711 39.4346 0.178711Z" fill="#005E38"/>
</g>
<path d="M59.3156 35.0497C59.3156 47.4605 49.2551 57.5192 36.8496 57.5192C24.4395 57.5192 14.3789 47.4605 14.3789 35.0497C14.3789 22.6412 24.4395 12.5825 36.8496 12.5825C49.2551 12.5825 59.3156 22.6412 59.3156 35.0497Z" fill="white"/>
</svg>
