<svg width="36" height="35" viewBox="0 0 36 35" fill="none" xmlns="http://www.w3.org/2000/svg">
<path id="Vector" d="M31.75 0H4.25C2.17969 0 0.5 1.67969 0.5 3.75V31.25C0.5 33.3203 2.17969 35 4.25 35H31.75C33.8203 35 35.5 33.3203 35.5 31.25V3.75C35.5 1.67969 33.8203 0 31.75 0ZM19.25 22.5H15.5V26.25C15.5 26.9375 14.9375 27.5 14.25 27.5H11.75C11.0625 27.5 10.5 26.9375 10.5 26.25V8.75C10.5 8.0625 11.0625 7.5 11.75 7.5H19.25C23.3828 7.5 26.75 10.8672 26.75 15C26.75 19.1328 23.3828 22.5 19.25 22.5ZM19.25 12.5H15.5V17.5H19.25C20.625 17.5 21.75 16.375 21.75 15C21.75 13.625 20.625 12.5 19.25 12.5Z" fill="black"/>
</svg>
