<svg width="38" height="36" viewBox="0 0 38 36" fill="none" xmlns="http://www.w3.org/2000/svg">
<g clip-path="url(#clip0_10701_1227)">
<path d="M37.7156 20.6722C36.3607 16.577 33.2812 12.1307 29.1547 8.21103C25.0898 4.29132 20.4091 1.42467 16.0978 0.137603C14.5581 -0.330422 12.8336 0.430118 12.2793 1.8927L0.207792 32.0218C-0.223332 33.1334 0.0230246 34.3034 0.885273 35.1225C1.50117 35.7075 2.24024 36 3.0409 36C3.41043 36 3.77997 35.9415 4.1495 35.8245L22.6879 29.0966C22.7494 29.0966 22.7494 29.0966 22.811 29.0381L25.0282 28.2191L35.8064 24.2994C37.4077 23.7729 38.2083 22.1348 37.7156 20.6722ZM3.41043 33.8354C2.91772 34.0109 2.54818 33.7184 2.425 33.6599C2.30183 33.5429 1.99388 33.2504 2.24024 32.7238L4.82698 26.2885C5.44287 27.5756 6.73625 28.4531 8.33757 28.4531C10.4316 28.4531 12.1561 26.815 12.1561 24.8259C12.1561 22.8368 10.4316 21.1987 8.33757 21.1987C7.78327 21.1987 7.22896 21.3157 6.73625 21.5497L11.5402 9.4981C12.3409 9.96612 13.1415 10.4341 13.9422 11.0192C12.9568 11.6627 12.3409 12.7743 12.3409 13.9443C12.3409 15.9334 14.0654 17.5715 16.1594 17.5715C17.7607 17.5715 19.1157 16.6355 19.67 15.3484C22.6263 17.981 25.521 21.1402 27.9845 25.0014L26.5064 25.5279C26.5064 23.5388 24.7819 21.9008 22.6879 21.9008C20.5938 21.9008 18.8693 23.5388 18.8693 25.5279C18.8693 26.464 19.2389 27.283 19.8547 27.9266L3.41043 33.8354ZM6.61307 24.8259C6.61307 23.9484 7.35214 23.2463 8.27598 23.2463C9.19982 23.2463 9.93889 23.9484 9.93889 24.8259C9.93889 25.7035 9.19982 26.4055 8.27598 26.4055C7.35214 26.4055 6.61307 25.7035 6.61307 24.8259ZM17.8223 13.8273C17.8223 13.8858 17.8223 13.8858 17.8223 13.9443C17.8223 14.8219 17.0832 15.5239 16.1594 15.5239C15.2356 15.5239 14.4965 14.8219 14.4965 13.9443C14.4965 13.1253 15.1124 12.4818 15.9746 12.3647C16.5905 12.8328 17.2064 13.3008 17.8223 13.8273ZM22.2567 27.049C21.5177 26.8735 20.9634 26.23 20.9634 25.5279C20.9634 24.6504 21.7024 23.9484 22.6263 23.9484C23.5501 23.9484 24.2892 24.6504 24.2892 25.5279C24.2892 25.879 24.166 26.1715 23.9812 26.4055L22.2567 27.049ZM35.1289 22.3688L30.017 24.2409C26.9991 19.3851 23.2422 15.5239 19.6084 12.5403C19.5468 12.5403 19.5468 12.4818 19.4852 12.4818C18.623 11.7797 17.7607 11.1362 16.8985 10.5512L16.8369 10.4927C15.2356 9.38109 13.6958 8.38654 12.2793 7.5675L14.2501 2.59473C14.3733 2.24371 14.7428 2.0097 15.1124 2.0097C15.2356 2.0097 15.2971 2.0097 15.4203 2.06821C19.362 3.23827 23.7965 6.04642 27.615 9.67361C31.4335 13.3008 34.3898 17.5715 35.6216 21.3157C35.8064 21.7252 35.56 22.1933 35.1289 22.3688Z" fill="black"/>
</g>
<defs>
<clipPath id="clip0_10701_1227">
<rect width="37.86" height="36" fill="white"/>
</clipPath>
</defs>
</svg>
