<svg width="140" height="138" viewBox="0 0 140 138" fill="none" xmlns="http://www.w3.org/2000/svg">
<mask id="mask0_10935_5772" style="mask-type:luminance" maskUnits="userSpaceOnUse" x="0" y="0" width="140" height="138">
<path d="M0 0H139.893V137.568H0V0Z" fill="white"/>
</mask>
<g mask="url(#mask0_10935_5772)">
<path d="M120 62.1198C118.344 63.5343 116.486 64.4621 114.094 64.3879C112.964 64.3515 111.831 64.4596 110.696 64.491C108.012 64.5627 104.154 65.5182 102.704 66.4977C106.991 67.4532 110.92 68.8865 113.735 72.0875C111.01 70.9157 108.377 69.7817 105.745 68.6476C105.499 68.9644 105.573 68.8676 105.326 69.1845C106.298 69.9288 107.271 70.6731 108.432 71.5645C107.71 71.2615 107.168 71.0603 106.657 70.8139C104.969 69.9967 103.399 68.8123 101.593 68.3999C96.1243 67.1514 90.5682 66.1896 85.034 65.1649C84.7565 65.1121 84.1261 65.4768 84.068 65.7207C83.6206 67.555 84.4021 70.5713 86.8671 71.5092C89.4541 72.4936 91.9249 73.7195 94.4103 74.8938C95.1365 75.2358 95.7466 75.7676 96.409 76.2127C96.3523 76.2642 96.2942 76.317 96.239 76.3686L90.314 73.976C90.1848 74.1457 90.2211 74.0992 90.0903 74.2664C90.8108 74.8297 91.5371 75.3854 92.2488 75.9549C93.01 76.566 93.7828 77.1694 94.5105 77.8119C95.8759 79.0202 96.5208 81.0142 96.0487 82.4425C92.3447 77.1179 92.3447 77.1179 88.7249 75.276C83.2909 72.51 82.9699 72.2133 81.0438 67.1992C80.9262 66.8899 80.7359 66.3833 80.6502 66.0677C80.027 63.792 76.7166 60.7481 74.3809 59.5977C74.3925 64.4646 75.3091 69.1568 78.849 73.3926C81.5304 76.5999 84.8306 79.029 89.1041 80.4157C89.6923 80.6069 90.4825 80.466 91.1362 80.3252C91.7506 80.1919 92.304 79.8588 93.0521 79.8399C92.0818 80.4069 91.113 80.9752 90.1165 81.5586C90.7019 82.147 91.341 82.7845 92.0208 83.4659C91.8 83.5162 91.6824 83.5715 91.6518 83.5476C89.5631 81.7937 87.1678 80.4937 84.4428 79.5621C83.1587 79.1233 82.0679 78.2557 80.7751 77.5165C80.5587 80.4283 81.728 83.5451 79.0567 86.0106C80.4047 84.0342 80.4846 81.9069 80.1011 79.5306C79.2005 80.9576 78.4002 82.2262 77.5983 83.4973C77.424 83.4332 77.2483 83.3704 77.074 83.3062C78.849 81.5699 79.141 79.5331 78.8766 77.3983C78.5992 75.1503 76.3288 73.9885 75.1522 71.9442C74.2299 74.2739 73.428 76.3032 72.6248 78.3312C72.5507 78.2947 72.4752 78.2583 72.4011 78.2231C72.7192 75.0107 73.2842 71.8021 73.2842 68.591C73.2842 65.3686 73.184 62.0934 72.0888 58.9603C71.9464 58.9527 71.8026 58.9464 71.6603 58.9376C71.5324 59.4745 71.3465 60.0038 71.2841 60.5457C70.8483 64.4307 69.2911 67.8945 66.4529 70.9673C62.8781 74.8347 61.395 79.3948 60.9012 84.2517C60.7966 85.2663 60.5831 86.2772 60.3187 87.2704C59.989 88.5139 59.177 89.4682 57.7491 90.0629C58.4841 88.0638 59.1901 86.1515 59.8945 84.2379C59.8219 84.214 59.7507 84.1914 59.6781 84.1675C57.951 85.6762 56.2239 87.1875 54.4968 88.6974C54.3371 88.5856 54.1787 88.4724 54.0189 88.3605C58.4042 85.2927 59.2743 80.8244 60.7646 76.405C56.9488 77.8786 53.358 79.2641 49.7688 80.6496C49.7063 80.6144 49.6438 80.5805 49.5828 80.5452C50.8364 79.6438 52.0246 78.6568 53.3638 77.8622C54.5651 77.1506 55.8811 76.5345 57.2378 76.0832C60.4988 74.9956 61.9107 72.6898 62.9841 69.9074C61.5563 69.6522 60.188 69.4057 58.8182 69.1606C58.8298 69.0562 58.8429 68.9506 58.8545 68.8463C59.3368 68.8375 59.819 68.8274 60.2998 68.8186C64.3307 68.7407 66.9424 67.032 68.1407 63.7266C68.7581 62.0192 69.2548 60.3206 68.6898 58.5416C67.8241 58.661 66.9903 58.9364 66.2219 59.3224C66.142 59.3613 66.0607 59.4003 65.9764 59.433C65.9125 59.4594 65.8486 59.4871 65.7832 59.516C63.4402 60.6035 59.9904 63.7379 59.3498 66.0664C59.2641 66.382 59.0738 66.8887 58.9562 67.1967C57.0301 72.212 56.712 72.5062 51.2765 75.2747C47.6582 77.1166 47.6582 77.1166 43.9527 82.4412C43.4806 81.0142 44.1241 79.0202 45.491 77.8107C46.2158 77.1682 46.9886 76.5634 47.7526 75.9524C48.4644 75.3829 49.1906 74.8271 49.9111 74.2651C49.7804 74.0954 49.8167 74.1419 49.686 73.9747L43.7624 76.3673C43.7058 76.3145 43.6491 76.263 43.5925 76.2114C44.2548 75.7663 44.8649 75.2345 45.5912 74.8913C48.0765 73.717 50.5459 72.4924 53.1343 71.5079C55.5979 70.5687 56.3808 67.5538 55.932 65.7182C55.8724 65.4742 55.242 65.1121 54.966 65.1624C49.4332 66.1871 43.8772 67.1502 38.4083 68.3987C36.5998 68.8098 35.0311 69.9942 33.3447 70.8114C32.8319 71.0591 32.2901 71.2577 31.5682 71.5632C32.7331 70.6718 33.7049 69.9275 34.6752 69.182C34.4283 68.8664 34.5024 68.9632 34.2569 68.6464C31.6219 69.7804 28.9899 70.9132 26.2663 72.0863C29.0829 68.8852 33.0106 67.4519 37.2971 66.4964C35.8445 65.5157 31.9865 64.5602 29.3051 64.4898C28.1721 64.4596 27.0362 64.3515 25.9061 64.3854C23.5166 64.4596 21.6588 63.5343 20 62.1173C22.1992 62.6428 24.285 63.6587 26.875 63.3708C26.538 62.8679 26.2504 62.4366 25.9744 62.0243C27.456 62.5385 28.926 63.0804 30.4308 63.5431C31.314 63.8146 32.293 63.8649 33.1747 64.1403C38.5724 65.8212 44.0021 64.9223 49.4289 64.3263C49.8443 64.2823 50.2321 64.0397 50.6882 63.665C47.9661 62.6479 44.8562 62.321 43.0783 59.7033C43.9338 60.0717 44.6746 60.3068 45.3108 60.679C50.405 63.655 56.8645 62.2732 60.2199 58.1594L60.2548 58.1154C62.3624 55.5229 62.2462 52.0276 59.9526 49.5546C53.7691 42.8922 47.9124 42.3566 37.5048 33.132C23.5108 20.7251 28.8606 5.9408 28.8606 5.9408C29.7627 3.31308 30.7882 6.05144 33.5989 15.9073C36.4081 25.7631 48.8885 28.3417 48.8885 28.3417C48.8885 28.3417 42.2663 21.7813 41.2408 20.138C40.2138 18.4972 41.6867 15.5992 59.681 29.8354C67.6846 36.1696 69.9521 42.6898 70.0029 47.9767C70.0523 42.6898 72.3212 36.1696 80.3248 29.8354C98.3191 15.598 99.7905 18.4947 98.765 20.138C97.7381 21.7787 91.1159 28.3417 91.1159 28.3417C91.1159 28.3417 103.596 25.7643 106.407 15.9073C109.212 6.05144 110.239 3.3156 111.141 5.9408C111.141 5.9408 116.491 20.7251 102.492 33.1332C92.0862 42.3592 86.2309 42.8935 80.0444 49.5571C77.7509 52.0289 77.6347 55.5241 79.7423 58.1166L79.7772 58.1606C83.1326 62.2757 89.5921 63.6562 94.6862 60.6815C95.3225 60.3093 96.0647 60.073 96.9188 59.7046C95.1409 62.3222 92.031 62.6491 89.3089 63.6675C89.765 64.0409 90.1528 64.2823 90.5682 64.3289C95.995 64.9235 101.425 65.8225 106.822 64.1415C107.707 63.8662 108.683 63.8159 109.566 63.5443C111.071 63.0816 112.541 62.5423 114.023 62.0255C113.747 62.4404 113.461 62.8692 113.122 63.3733C115.716 63.66 117.802 62.6441 120 62.1198Z" fill="#CC9600"/>
</g>
</svg>
