<svg width="72" height="78" viewBox="0 0 72 78" fill="none" xmlns="http://www.w3.org/2000/svg">
<path d="M43.4611 60.073C41.2044 60.073 39.3428 59.5894 38.2144 58.6535C37.9284 58.4143 37.8868 57.9827 38.126 57.6967C38.3652 57.4108 38.7916 57.3692 39.0828 57.6083C40.5856 58.8615 44.1891 59.0643 48.0474 58.1179C51.9838 57.1508 56.7521 54.7849 58.3172 51.0412C58.4264 50.7864 58.6708 50.6304 58.9516 50.6252H59.066C65.2955 50.6252 70.3654 45.5556 70.3654 39.3264C70.3654 33.9968 66.5851 29.3431 61.3748 28.2616C61.1304 28.2096 60.938 28.0328 60.8652 27.7988C60.7924 27.5648 60.8496 27.31 61.016 27.1332C62.8308 25.1938 63.8291 22.6616 63.8291 20.0045C63.8291 14.2485 59.144 9.56365 53.3877 9.56365C51.1362 9.56365 48.9938 10.2708 47.1894 11.6019C47.0023 11.7423 46.7475 11.7735 46.5291 11.6799C46.3055 11.5915 46.1495 11.3887 46.1183 11.1547C45.3643 6.08509 40.9236 2.26336 35.7913 2.26336C30.6174 2.26336 26.2806 5.9655 25.4798 11.0612C25.4382 11.2951 25.2875 11.4927 25.0691 11.5811C24.8507 11.6695 24.6063 11.6435 24.4139 11.5083C22.6355 10.2344 20.5347 9.56365 18.3456 9.56365C12.5893 9.56365 7.90417 14.2485 7.90417 20.0045C7.90417 22.4016 8.73616 24.7414 10.2441 26.5925C10.3897 26.7693 10.4365 27.0033 10.3689 27.2216C10.3013 27.44 10.1297 27.6064 9.91654 27.674C4.87263 29.1923 1.35229 33.9396 1.35229 39.212C1.35229 45.7376 6.65619 51.14 13.1821 51.2596C13.4577 51.2648 13.7073 51.4364 13.8061 51.7016C15.4752 56.22 20.9039 58.4039 25.2407 58.5235C28.683 58.6171 31.3349 57.4992 32.1565 55.6013C32.3073 55.2581 32.7077 55.0969 33.0509 55.2477C33.3941 55.3985 33.5553 55.7989 33.4045 56.1421C32.3541 58.5599 29.2082 59.9898 25.2043 59.8806C20.5607 59.7558 14.7576 57.4212 12.7037 52.5959C9.34455 52.4243 6.209 51.0204 3.84305 48.6078C1.35749 46.0859 -0.00488281 42.7478 -0.00488281 39.212C-0.00488281 36.2742 0.9259 33.482 2.68867 31.1422C4.20704 29.1403 6.2818 27.5804 8.61656 26.6861C7.27498 24.7258 6.547 22.3912 6.547 20.0045C6.547 13.4998 11.8405 8.20655 18.3456 8.20655C20.4775 8.20655 22.5315 8.76811 24.3411 9.84444C24.9287 7.4942 26.239 5.36234 28.0902 3.76605C30.2274 1.92538 32.9625 0.90625 35.7913 0.90625C38.6356 0.90625 41.3812 1.93578 43.5287 3.79725C45.3851 5.41434 46.6851 7.55659 47.257 9.92243C49.0978 8.79931 51.1986 8.20655 53.3877 8.20655C59.8928 8.20655 65.1863 13.4998 65.1863 20.0045C65.1863 22.6304 64.3179 25.147 62.732 27.206C68.0047 28.8023 71.7226 33.7316 71.7226 39.3264C71.7226 46.2003 66.2159 51.8107 59.3832 51.9823C57.4697 55.9445 52.4882 58.4247 48.3698 59.4334C46.6227 59.865 44.9535 60.073 43.4611 60.073Z" fill="white"/>
<mask id="mask0_10918_3606" style="mask-type:luminance" maskUnits="userSpaceOnUse" x="17" y="25" width="38" height="53">
<path d="M17.9951 25.9062H54.5349V77.4867H17.9951V25.9062Z" fill="white"/>
</mask>
<g mask="url(#mask0_10918_3606)">
<path d="M40.1205 77.9703H32.3727C32.1855 77.9703 32.0087 77.8975 31.8839 77.7623C31.7539 77.6323 31.6863 77.4503 31.6967 77.2683L32.5079 55.5598L25.5244 46.9648L18.4265 43.9594C18.1301 43.8346 17.9637 43.5226 18.0209 43.2107C18.0781 42.8987 18.3485 42.6699 18.6657 42.6595L27.594 42.3787C27.7916 42.3735 27.984 42.4515 28.114 42.5971L33.3087 48.2439L33.0747 38.453L28.3792 26.8526C28.2596 26.5458 28.374 26.1922 28.6547 26.0206C28.9407 25.8491 29.3047 25.9063 29.5231 26.1558L36.1946 33.8981L42.1745 31.8182C42.4605 31.7195 42.7725 31.8182 42.9493 32.0626C43.1261 32.307 43.1209 32.6346 42.9337 32.8738L38.337 38.8274V50.459L40.1309 47.1936C40.2453 46.9856 40.4533 46.8556 40.6873 46.8452L45.544 46.5748L53.4947 41.916C53.7495 41.7652 54.0771 41.7964 54.2955 41.9991C54.5139 42.2019 54.5763 42.5243 54.4463 42.7947L50.2604 51.4417C50.1512 51.6757 49.912 51.8265 49.652 51.8265H44.1453L39.7409 58.04L40.7965 77.2579C40.8069 77.4399 40.7393 77.6219 40.6145 77.7623C40.4845 77.8923 40.3077 77.9703 40.1205 77.9703Z" fill="white"/>
</g>
</svg>
