<svg width="100" height="90" viewBox="0 0 100 90" fill="none" xmlns="http://www.w3.org/2000/svg">
<path d="M100 59.7532C100 55.8036 98.7503 51.9625 96.4592 48.8205C96.8338 47.4618 97.0421 46.0404 97.0421 44.6176C97.0421 40.9672 95.7924 37.5078 93.4999 34.7475C93.8745 33.5384 94.0633 32.2849 94.0633 30.9903C94.0633 24.1981 88.6465 18.7004 81.9995 18.7004C75.354 18.7004 69.9372 24.2194 69.9372 30.9903C69.9372 32.2849 70.1245 33.5384 70.5006 34.7475C68.208 37.5078 66.9584 40.9886 66.9584 44.6176C66.9584 46.0404 67.1457 47.4618 67.5412 48.8205C65.2502 51.9625 64.0005 55.825 64.0005 59.7532C64.0005 69.3042 71.1869 77.1788 80.3542 78.0292V86.6046H43.3328V67.8614C53.5835 66.9912 61.6674 58.225 61.6674 47.5473C61.6674 43.8542 60.6875 40.2665 58.8339 37.1032C59.6041 35.0238 59.9997 32.8162 59.9997 30.5659C59.9997 26.427 58.6466 22.4149 56.1877 19.1462C56.5204 17.873 56.6672 16.5783 56.6672 15.2837C56.6672 6.85637 49.9378 0 41.6665 0C33.3953 0 26.6659 6.85637 26.6659 15.2837C26.6659 16.5997 26.8337 17.8944 27.1454 19.1462C24.688 22.4149 23.3334 26.427 23.3334 30.5659C23.3334 32.8162 23.729 35.0238 24.5007 37.1032C22.6456 40.2451 21.6671 43.8542 21.6671 47.5473C21.6671 58.2036 29.7496 66.9912 40.0003 67.8614V86.6046H13.3329V78.5803C15.0831 78.3254 16.7703 77.646 18.2702 76.5422C22.4373 73.5071 24.1036 67.9882 22.3339 63.1058L15.9582 45.4878C15.2914 43.6634 13.6041 42.4527 11.6667 42.4527C9.72924 42.4527 8.04202 43.6634 7.37522 45.5092L0.999446 63.1272C-0.771686 68.0095 0.896055 73.5285 5.06166 76.5636C6.56308 77.646 8.27127 78.3254 10.0005 78.6017V86.6046H1.66624C0.74921 86.6046 0 87.368 0 88.3023C0 89.2366 0.74921 90 1.66624 90H98.3338C99.2508 90 100 89.2366 100 88.3023C100 87.368 99.2508 86.6046 98.3338 86.6046H83.6463V78.0292C92.8121 77.1788 100 69.3042 100 59.7532ZM11.6667 52.1106C10.7497 52.1106 10.0005 52.8754 10.0005 53.8098V64.9958L9.52096 64.5073C8.87514 63.8493 7.81276 63.8493 7.16694 64.5073C6.52112 65.1653 6.52112 66.2477 7.16694 66.9057L10.0005 69.7927V75.1422C8.93807 74.9087 7.91615 74.4629 7.00061 73.8049C4.06221 71.6599 2.87547 67.7546 4.12515 64.3165L10.4994 46.6984C10.7706 45.9336 11.4584 45.871 11.6667 45.871C11.875 45.871 12.5627 45.9336 12.834 46.6984L19.2082 64.3165C20.4579 67.7759 19.2712 71.6812 16.3328 73.8049C15.4172 74.4842 14.3953 74.9087 13.3329 75.1422V64.6981L16.1874 61.7898C16.8332 61.1318 16.8332 60.0494 16.1874 59.3914C15.5416 58.7334 14.4792 58.7334 13.8334 59.3914L13.3539 59.8799V53.7884C13.3329 52.8754 12.5837 52.1106 11.6667 52.1106ZM41.6665 15.2837C40.7495 15.2837 40.0003 16.0471 40.0003 16.9814V19.6775L37.8546 17.4913C37.2087 16.8333 36.1464 16.8333 35.5005 17.4913C34.8547 18.1493 34.8547 19.2317 35.5005 19.8897L40.0213 24.4958V38.378L37.8755 36.1917C37.2297 35.5337 36.1673 35.5337 35.5215 36.1917C34.8757 36.8498 34.8757 37.9322 35.5215 38.5902L40.0423 43.1962V53.6815L37.8965 51.4953C37.2507 50.8373 36.1868 50.8373 35.541 51.4953C34.8952 52.1533 34.8952 53.2357 35.541 53.8937L40.0617 58.4998V64.5073C31.6451 63.6585 25.0626 56.399 25.0626 47.6114C25.0626 44.2786 26.0201 41.0527 27.8122 38.2711C28.1253 37.8039 28.1673 37.1887 27.959 36.6574C27.1454 34.7475 26.7498 32.7094 26.7498 30.63C26.7498 26.9995 28.0204 23.4759 30.3535 20.6958C30.7296 20.25 30.854 19.6348 30.6666 19.0607C30.2711 17.8516 30.0838 16.5997 30.0838 15.3463C30.0838 8.78764 35.3117 3.45948 41.7505 3.45948C48.1877 3.45948 53.4171 8.78764 53.4171 15.3463C53.4171 16.6196 53.2298 17.873 52.8328 19.0607C52.6455 19.6348 52.7713 20.25 53.1459 20.6958C55.458 23.4546 56.7496 26.9782 56.7496 30.63C56.7496 32.7307 56.3331 34.7475 55.5419 36.6574C55.3126 37.1887 55.3756 37.7826 55.6873 38.2711C57.4794 41.0527 58.4369 44.2786 58.4369 47.6114C58.4369 56.399 51.8543 63.6585 43.4377 64.5073V51.7075L47.9584 47.1015C48.6042 46.4435 48.6042 45.3611 47.9584 44.7031C47.3126 44.0451 46.2502 44.0451 45.6044 44.7031L43.3328 46.8465V32.9643L47.8535 28.3583C48.4993 27.7003 48.4993 26.6179 47.8535 25.9599C47.2077 25.3019 46.1453 25.3019 45.4995 25.9599L43.3328 28.1675V16.9814C43.3328 16.0471 42.5836 15.2837 41.6665 15.2837ZM81.98 37.3581C81.063 37.3581 80.3123 38.123 80.3123 39.0574V50.2434L78.1665 48.0572C77.5207 47.3992 76.4583 47.3992 75.8125 48.0572C75.1667 48.7152 75.1667 49.7976 75.8125 50.4556L80.3333 55.0617V65.547L78.1875 63.3608C77.5417 62.7028 76.4793 62.7028 75.8335 63.3608C75.1877 64.0188 75.1877 65.1012 75.8335 65.7592L80.3542 70.3652V74.6537C73.0419 73.8049 67.333 67.4584 67.333 59.7944C67.333 56.3349 68.5212 52.9396 70.6879 50.2648C71.0625 49.7976 71.1674 49.1824 70.9786 48.6083C70.5411 47.3351 70.3133 45.9977 70.3133 44.6389C70.3133 41.5184 71.5001 38.5688 73.6248 36.3185C74.0833 35.8299 74.2287 35.1093 73.959 34.4712C73.5005 33.3674 73.2712 32.201 73.2712 31.0117C73.2712 26.108 77.1881 22.1187 81.9995 22.1187C86.8124 22.1187 90.7293 26.108 90.7293 31.0117C90.7293 32.2224 90.5 33.3887 90.0415 34.4712C89.7703 35.1093 89.9171 35.8299 90.3757 36.3185C92.5214 38.5688 93.6872 41.5184 93.6872 44.6389C93.6872 45.9977 93.4579 47.3351 93.0204 48.6083C92.8331 49.161 92.938 49.7976 93.3126 50.2648C95.4793 52.9396 96.6675 56.3135 96.6675 59.7944C96.6675 67.4782 90.9585 73.8049 83.6463 74.6537V63.573L88.167 58.9669C88.8128 58.3089 88.8128 57.2265 88.167 56.5685C87.5212 55.9105 86.4588 55.9105 85.813 56.5685L83.6672 58.7547V39.0574C83.6463 38.123 82.8955 37.3581 81.98 37.3581Z" fill="#005E38"/>
</svg>
