<svg width="16" height="25" viewBox="0 0 16 25" fill="none" xmlns="http://www.w3.org/2000/svg">
<path d="M10.155 4.6875C11.449 4.6875 12.4988 3.6377 12.4988 2.34375C12.4988 1.0498 11.449 0 10.155 0C8.86108 0 7.81128 1.0498 7.81128 2.34375C7.81128 3.6377 8.86108 4.6875 10.155 4.6875ZM14.7693 11.9678L13.6316 11.3916L13.158 9.95605C12.4402 7.77832 10.4382 6.25488 8.16772 6.25C6.40991 6.24512 5.43823 6.74316 3.61206 7.48047C2.55737 7.90527 1.69312 8.71094 1.1853 9.73633L0.858154 10.4004C0.477295 11.1719 0.784912 12.1094 1.55151 12.4951C2.31323 12.8809 3.24097 12.5684 3.62671 11.7969L3.95386 11.1328C4.12476 10.791 4.40796 10.5225 4.75952 10.3809L6.06812 9.85352L5.32593 12.8174C5.07202 13.833 5.34546 14.9121 6.05347 15.6885L8.97827 18.8818C9.32983 19.2676 9.57886 19.7314 9.70581 20.2344L10.5994 23.8135C10.8093 24.6484 11.6589 25.1611 12.4939 24.9512C13.3289 24.7412 13.8416 23.8916 13.6316 23.0566L12.5476 18.7109C12.4207 18.208 12.1716 17.7393 11.8201 17.3584L9.59839 14.9316L10.4382 11.5771L10.7068 12.3828C10.9656 13.1689 11.5222 13.8184 12.2546 14.1895L13.3923 14.7656C14.1541 15.1514 15.0818 14.8389 15.4675 14.0674C15.8435 13.3008 15.5359 12.3535 14.7693 11.9678ZM3.59253 18.8379C3.43628 19.2334 3.2019 19.5898 2.89917 19.8877L0.457764 22.334C-0.152588 22.9443 -0.152588 23.9355 0.457764 24.5459C1.06812 25.1562 2.05444 25.1562 2.66479 24.5459L5.56519 21.6455C5.86304 21.3477 6.09741 20.9912 6.25854 20.5957L6.91772 18.9453C4.21753 16.001 5.02808 16.9043 4.60327 16.3232L3.59253 18.8379Z" fill="black"/>
</svg>
