<svg width="35" height="25" viewBox="0 0 35 25" fill="none" xmlns="http://www.w3.org/2000/svg">
<path id="Vector" d="M34.719 6.66667C25.0307 -2.22385 9.96272 -2.22059 0.278292 6.66667C-0.0858994 7.00087 -0.0930083 7.56673 0.259153 7.91341L2.13151 9.7564C2.46727 10.0873 3.00754 10.0944 3.35642 9.77702C11.3358 2.52441 23.6604 2.52279 31.6414 9.77702C31.9903 10.0944 32.5305 10.0868 32.8663 9.7564L34.7387 7.91341C35.0903 7.56673 35.0832 7.00087 34.719 6.66667ZM17.4986 17.3611C15.5656 17.3611 13.9989 18.9155 13.9989 20.8333C13.9989 22.7512 15.5656 24.3056 17.4986 24.3056C19.4317 24.3056 20.9984 22.7512 20.9984 20.8333C20.9984 18.9155 19.4317 17.3611 17.4986 17.3611ZM28.5813 12.8261C22.2785 7.29601 12.7116 7.30197 6.41595 12.8261C6.03864 13.157 6.02661 13.7316 6.38478 14.082L8.26808 15.9261C8.59618 16.2473 9.12442 16.269 9.47385 15.9695C14.0645 12.0323 20.9431 12.041 25.5229 15.9695C25.8723 16.269 26.4005 16.2478 26.7286 15.9261L28.6119 14.082C28.9707 13.7316 28.9581 13.1565 28.5813 12.8261Z" fill="black"/>
</svg>
