<svg width="53" height="61" viewBox="0 0 53 61" fill="none" xmlns="http://www.w3.org/2000/svg">
<path d="M28.4359 25.907C28.3475 25.803 30.287 24.5707 30.287 21.6693C30.8277 21.6433 31.2593 20.8685 31.2593 19.9118C31.2593 19.0643 31.4309 18.1751 30.9733 18.0087C30.8069 15.4245 29.7046 13.7814 27.9731 13.1107C27.1672 12.8039 25.4409 12.7779 24.6974 13.1159C23.0075 13.8802 22.0091 15.4713 21.8428 18.0503C21.3904 18.2219 21.4164 19.0643 21.4164 19.9118C21.4164 20.8685 21.8479 21.6433 22.3887 21.6693C22.3887 24.5707 24.3282 25.803 24.2398 25.907C21.354 29.3959 12.5718 23.4372 12.8994 21.6485C13.1957 20.0418 18.6918 14.5822 22.6903 10.3185C23.5274 9.42412 25.5397 6.64231 26.3404 4.12049C27.1412 6.64231 29.1482 9.42412 29.9854 10.3185C33.9839 14.5822 39.4799 20.0418 39.7763 21.6485C40.1039 23.4372 31.3217 29.3959 28.4359 25.907ZM51.3975 52.7267C49.5672 50.7769 45.6415 51.2864 43.2653 51.3124C40.1559 51.3488 35.575 51.8272 33.256 49.2846C32.2004 48.1303 31.8365 46.4924 31.8053 44.9273C31.7637 43.0138 33.5056 36.4623 33.6927 34.5592C33.7811 33.6025 43.0625 25.9434 44.7576 22.0177C45.7923 19.6206 35.9026 13.5318 32.0289 9.47612C28.1967 5.45679 27.3336 -0.902369 26.3404 0.808313C25.3473 -0.902369 24.479 5.45679 20.6468 9.47612C16.7731 13.5318 6.88338 19.6206 7.91811 22.0177C9.61319 25.9434 18.8946 33.6025 18.9881 34.5592C19.1701 36.4623 20.912 43.0138 20.8756 44.9273C20.8444 46.4924 20.4752 48.1303 19.4197 49.2846C17.1007 51.8272 12.5198 51.3488 9.41041 51.3124C7.03417 51.2864 3.10844 50.7769 1.28336 52.7267C-4.82102 59.2211 16.7523 60.8642 26.3404 60.9526C35.9234 60.8642 57.4967 59.2211 51.3975 52.7267Z" fill="white"/>
</svg>
